<?xml version="1.0" encoding="UTF-8"?>
<!DOCTYPE svg PUBLIC "-//W3C//DTD SVG 1.1//EN" "http://www.w3.org/Graphics/SVG/1.1/DTD/svg11.dtd">
<svg version="1.2" width="215.9mm" height="101.6mm" viewBox="0 0 21590 10160" preserveAspectRatio="xMidYMid" fill-rule="evenodd" clip-path="url(#presentation_clip_path)" stroke-width="28.222" stroke-linejoin="round" xmlns="http://www.w3.org/2000/svg" xmlns:ooo="http://xml.openoffice.org/svg/export" xmlns:xlink="http://www.w3.org/1999/xlink" xml:space="preserve">
 <defs class="ClipPathGroup">
  <clipPath id="presentation_clip_path" clipPathUnits="userSpaceOnUse">
   <rect x="0" y="0" width="21590" height="10160"/>
  </clipPath>
 </defs>
 <defs class="TextShapeIndex">
  <g ooo:slide="id1" ooo:id-list="id3 id4 id5 id6 id7 id8 id9 id10 id11 id12 id13 id14 id15 id16 id17 id18 id19 id20 id21"/>
 </defs>
 <defs class="EmbeddedBulletChars">
  <g id="bullet-char-template(57356)" transform="scale(0.00048828125,-0.00048828125)">
   <path d="M 580,1141 L 1163,571 580,0 -4,571 580,1141 Z"/>
  </g>
  <g id="bullet-char-template(57354)" transform="scale(0.00048828125,-0.00048828125)">
   <path d="M 8,1128 L 1137,1128 1137,0 8,0 8,1128 Z"/>
  </g>
  <g id="bullet-char-template(10146)" transform="scale(0.00048828125,-0.00048828125)">
   <path d="M 174,0 L 602,739 174,1481 1456,739 174,0 Z M 1358,739 L 309,1346 659,739 1358,739 Z"/>
  </g>
  <g id="bullet-char-template(10132)" transform="scale(0.00048828125,-0.00048828125)">
   <path d="M 2015,739 L 1276,0 717,0 1260,543 174,543 174,936 1260,936 717,1481 1274,1481 2015,739 Z"/>
  </g>
  <g id="bullet-char-template(10007)" transform="scale(0.00048828125,-0.00048828125)">
   <path d="M 0,-2 C -7,14 -16,27 -25,37 L 356,567 C 262,823 215,952 215,954 215,979 228,992 255,992 264,992 276,990 289,987 310,991 331,999 354,1012 L 381,999 492,748 772,1049 836,1024 860,1049 C 881,1039 901,1025 922,1006 886,937 835,863 770,784 769,783 710,716 594,584 L 774,223 C 774,196 753,168 711,139 L 727,119 C 717,90 699,76 672,76 641,76 570,178 457,381 L 164,-76 C 142,-110 111,-127 72,-127 30,-127 9,-110 8,-76 1,-67 -2,-52 -2,-32 -2,-23 -1,-13 0,-2 Z"/>
  </g>
  <g id="bullet-char-template(10004)" transform="scale(0.00048828125,-0.00048828125)">
   <path d="M 285,-33 C 182,-33 111,30 74,156 52,228 41,333 41,471 41,549 55,616 82,672 116,743 169,778 240,778 293,778 328,747 346,684 L 369,508 C 377,444 397,411 428,410 L 1163,1116 C 1174,1127 1196,1133 1229,1133 1271,1133 1292,1118 1292,1087 L 1292,965 C 1292,929 1282,901 1262,881 L 442,47 C 390,-6 338,-33 285,-33 Z"/>
  </g>
  <g id="bullet-char-template(9679)" transform="scale(0.00048828125,-0.00048828125)">
   <path d="M 813,0 C 632,0 489,54 383,161 276,268 223,411 223,592 223,773 276,916 383,1023 489,1130 632,1184 813,1184 992,1184 1136,1130 1245,1023 1353,916 1407,772 1407,592 1407,412 1353,268 1245,161 1136,54 992,0 813,0 Z"/>
  </g>
  <g id="bullet-char-template(8226)" transform="scale(0.00048828125,-0.00048828125)">
   <path d="M 346,457 C 273,457 209,483 155,535 101,586 74,649 74,723 74,796 101,859 155,911 209,963 273,989 346,989 419,989 480,963 531,910 582,859 608,796 608,723 608,648 583,586 532,535 482,483 420,457 346,457 Z"/>
  </g>
  <g id="bullet-char-template(8211)" transform="scale(0.00048828125,-0.00048828125)">
   <path d="M -4,459 L 1135,459 1135,606 -4,606 -4,459 Z"/>
  </g>
 </defs>
 <defs class="TextEmbeddedBitmaps"/>
 <g>
  <g id="id2" class="Master_Slide">
   <g id="bg-id2" class="Background"/>
   <g id="bo-id2" class="BackgroundObjects"/>
  </g>
 </g>
 <g class="SlideGroup">
  <g>
   <g id="id1" class="Slide" clip-path="url(#presentation_clip_path)">
    <g class="Page">
     <g class="com.sun.star.drawing.CustomShape">
      <g id="id3">
       <path fill="rgb(114,159,207)" stroke="none" d="M 4229,3461 C 4337,3461 4420,3543 4420,3651 4420,3759 4337,3842 4229,3842 4121,3842 4039,3759 4039,3651 4039,3543 4121,3461 4229,3461 Z M 4039,3461 L 4039,3461 Z M 4421,3843 L 4421,3843 Z"/>
       <path fill="none" stroke="rgb(52,101,175)" d="M 4229,3461 C 4337,3461 4420,3543 4420,3651 4420,3759 4337,3842 4229,3842 4121,3842 4039,3759 4039,3651 4039,3543 4121,3461 4229,3461 Z"/>
       <path fill="none" stroke="rgb(52,101,175)" d="M 4039,3461 L 4039,3461 Z"/>
       <path fill="none" stroke="rgb(52,101,175)" d="M 4421,3843 L 4421,3843 Z"/>
      </g>
     </g>
     <g class="com.sun.star.drawing.TextShape">
      <g id="id4">
       <text class="TextShape"><tspan class="TextParagraph" font-family="Arial, sans-serif" font-size="635px" font-weight="400"><tspan class="TextPosition" x="6076" y="1877"><tspan fill="rgb(0,0,0)" stroke="none">Predicted network weights space:</tspan></tspan></tspan></text>
      </g>
     </g>
     <g class="com.sun.star.drawing.TextShape">
      <g id="id5">
       <text class="TextShape"><tspan class="TextParagraph" font-family="Arial, sans-serif" font-size="635px" font-weight="400"><tspan class="TextPosition" x="2033" y="3231"><tspan fill="rgb(0,0,0)" stroke="none">Correct weights</tspan></tspan></tspan></text>
      </g>
     </g>
     <g class="com.sun.star.drawing.CustomShape">
      <g id="id6">
       <path fill="rgb(114,159,207)" stroke="none" d="M 4329,7662 C 4437,7662 4520,7744 4520,7852 4520,7960 4437,8043 4329,8043 4221,8043 4139,7960 4139,7852 4139,7744 4221,7662 4329,7662 Z M 4139,7662 L 4139,7662 Z M 4521,8044 L 4521,8044 Z"/>
       <path fill="none" stroke="rgb(52,101,175)" d="M 4329,7662 C 4437,7662 4520,7744 4520,7852 4520,7960 4437,8043 4329,8043 4221,8043 4139,7960 4139,7852 4139,7744 4221,7662 4329,7662 Z"/>
       <path fill="none" stroke="rgb(52,101,175)" d="M 4139,7662 L 4139,7662 Z"/>
       <path fill="none" stroke="rgb(52,101,175)" d="M 4521,8044 L 4521,8044 Z"/>
      </g>
     </g>
     <g class="com.sun.star.drawing.TextShape">
      <g id="id7">
       <text class="TextShape"><tspan class="TextParagraph" font-family="Arial, sans-serif" font-size="635px" font-weight="400"><tspan class="TextPosition" x="2133" y="7432"><tspan fill="rgb(0,0,0)" stroke="none">Correct weights</tspan></tspan></tspan></text>
      </g>
     </g>
     <g class="com.sun.star.drawing.CustomShape">
      <g id="id8">
       <path fill="rgb(114,159,207)" stroke="none" d="M 17429,3162 C 17537,3162 17620,3244 17620,3352 17620,3460 17537,3543 17429,3543 17321,3543 17239,3460 17239,3352 17239,3244 17321,3162 17429,3162 Z M 17239,3162 L 17239,3162 Z M 17621,3544 L 17621,3544 Z"/>
       <path fill="none" stroke="rgb(52,101,175)" d="M 17429,3162 C 17537,3162 17620,3244 17620,3352 17620,3460 17537,3543 17429,3543 17321,3543 17239,3460 17239,3352 17239,3244 17321,3162 17429,3162 Z"/>
       <path fill="none" stroke="rgb(52,101,175)" d="M 17239,3162 L 17239,3162 Z"/>
       <path fill="none" stroke="rgb(52,101,175)" d="M 17621,3544 L 17621,3544 Z"/>
      </g>
     </g>
     <g class="com.sun.star.drawing.TextShape">
      <g id="id9">
       <text class="TextShape"><tspan class="TextParagraph" font-family="Arial, sans-serif" font-size="635px" font-weight="400"><tspan class="TextPosition" x="15233" y="2932"><tspan fill="rgb(0,0,0)" stroke="none">Correct weights</tspan></tspan></tspan></text>
      </g>
     </g>
     <g class="com.sun.star.drawing.CustomShape">
      <g id="id10">
       <path fill="rgb(114,159,207)" stroke="none" d="M 15329,7562 C 15437,7562 15520,7644 15520,7752 15520,7860 15437,7943 15329,7943 15221,7943 15139,7860 15139,7752 15139,7644 15221,7562 15329,7562 Z M 15139,7562 L 15139,7562 Z M 15521,7944 L 15521,7944 Z"/>
       <path fill="none" stroke="rgb(52,101,175)" d="M 15329,7562 C 15437,7562 15520,7644 15520,7752 15520,7860 15437,7943 15329,7943 15221,7943 15139,7860 15139,7752 15139,7644 15221,7562 15329,7562 Z"/>
       <path fill="none" stroke="rgb(52,101,175)" d="M 15139,7562 L 15139,7562 Z"/>
       <path fill="none" stroke="rgb(52,101,175)" d="M 15521,7944 L 15521,7944 Z"/>
      </g>
     </g>
     <g class="com.sun.star.drawing.TextShape">
      <g id="id11">
       <text class="TextShape"><tspan class="TextParagraph" font-family="Arial, sans-serif" font-size="635px" font-weight="400"><tspan class="TextPosition" x="13133" y="7332"><tspan fill="rgb(0,0,0)" stroke="none">Correct weights</tspan></tspan></tspan></text>
      </g>
     </g>
     <g class="com.sun.star.drawing.CustomShape">
      <g id="id12">
       <path fill="rgb(197,0,11)" stroke="none" d="M 9329,5063 C 9437,5063 9520,5145 9520,5253 9520,5361 9437,5444 9329,5444 9221,5444 9139,5361 9139,5253 9139,5145 9221,5063 9329,5063 Z M 9139,5063 L 9139,5063 Z M 9521,5445 L 9521,5445 Z"/>
       <path fill="none" stroke="rgb(197,0,11)" d="M 9329,5063 C 9437,5063 9520,5145 9520,5253 9520,5361 9437,5444 9329,5444 9221,5444 9139,5361 9139,5253 9139,5145 9221,5063 9329,5063 Z"/>
       <path fill="none" stroke="rgb(197,0,11)" d="M 9139,5063 L 9139,5063 Z"/>
       <path fill="none" stroke="rgb(197,0,11)" d="M 9521,5445 L 9521,5445 Z"/>
      </g>
     </g>
     <g class="com.sun.star.drawing.TextShape">
      <g id="id13">
       <text class="TextShape"><tspan class="TextParagraph" font-family="Arial, sans-serif" font-size="635px" font-weight="400"><tspan class="TextPosition" x="7133" y="4133"><tspan fill="rgb(0,0,0)" stroke="none">Random initialization</tspan></tspan></tspan></text>
      </g>
     </g>
     <g class="com.sun.star.drawing.ConnectorShape">
      <g id="id14">
       <path fill="none" stroke="rgb(0,0,0)" d="M 9068,5397 L 6933,6463"/>
       <path fill="rgb(0,0,0)" stroke="none" d="M 6548,6655 L 7018,6588 6884,6320 6548,6655 Z"/>
      </g>
     </g>
     <g class="com.sun.star.drawing.ConnectorShape">
      <g id="id15">
       <path fill="none" stroke="rgb(0,0,0)" d="M 9011,5148 L 5856,4047"/>
       <path fill="rgb(0,0,0)" stroke="none" d="M 5450,3905 L 5825,4195 5924,3912 5450,3905 Z"/>
      </g>
     </g>
     <g class="com.sun.star.drawing.ConnectorShape">
      <g id="id16">
       <path fill="none" stroke="rgb(0,0,0)" d="M 9567,5408 L 12345,6556"/>
       <path fill="rgb(0,0,0)" stroke="none" d="M 12742,6720 L 12383,6410 12269,6687 12742,6720 Z"/>
      </g>
     </g>
     <g class="com.sun.star.drawing.ConnectorShape">
      <g id="id17">
       <path fill="none" stroke="rgb(0,0,0)" d="M 9631,5186 L 16367,3582"/>
       <path fill="rgb(0,0,0)" stroke="none" d="M 16785,3482 L 16312,3440 16382,3732 16785,3482 Z"/>
      </g>
     </g>
     <g class="com.sun.star.drawing.TextShape">
      <g id="id18">
       <text class="TextShape"><tspan class="TextParagraph" font-family="Arial, sans-serif" font-size="635px" font-weight="400"><tspan class="TextPosition" x="10140" y="4798"><tspan fill="rgb(0,0,0)" stroke="none">?</tspan></tspan></tspan></text>
      </g>
     </g>
     <g class="com.sun.star.drawing.TextShape">
      <g id="id19">
       <text class="TextShape"><tspan class="TextParagraph" font-family="Arial, sans-serif" font-size="635px" font-weight="400"><tspan class="TextPosition" x="10648" y="5761"><tspan fill="rgb(0,0,0)" stroke="none">?</tspan></tspan></tspan></text>
      </g>
     </g>
     <g class="com.sun.star.drawing.TextShape">
      <g id="id20">
       <text class="TextShape"><tspan class="TextParagraph" font-family="Arial, sans-serif" font-size="635px" font-weight="400"><tspan class="TextPosition" x="7727" y="5814"><tspan fill="rgb(0,0,0)" stroke="none">?</tspan></tspan></tspan></text>
      </g>
     </g>
     <g class="com.sun.star.drawing.TextShape">
      <g id="id21">
       <text class="TextShape"><tspan class="TextParagraph" font-family="Arial, sans-serif" font-size="635px" font-weight="400"><tspan class="TextPosition" x="7981" y="4798"><tspan fill="rgb(0,0,0)" stroke="none">?</tspan></tspan></tspan></text>
      </g>
     </g>
    </g>
   </g>
  </g>
 </g>
</svg>