<?xml version="1.0" encoding="UTF-8"?>
<!DOCTYPE svg PUBLIC "-//W3C//DTD SVG 1.1//EN" "http://www.w3.org/Graphics/SVG/1.1/DTD/svg11.dtd">
<svg version="1.2" width="215.9mm" height="127mm" viewBox="0 0 21590 12700" preserveAspectRatio="xMidYMid" fill-rule="evenodd" clip-path="url(#presentation_clip_path)" stroke-width="28.222" stroke-linejoin="round" xmlns="http://www.w3.org/2000/svg" xmlns:ooo="http://xml.openoffice.org/svg/export" xmlns:xlink="http://www.w3.org/1999/xlink" xml:space="preserve">
 <defs class="ClipPathGroup">
  <clipPath id="presentation_clip_path" clipPathUnits="userSpaceOnUse">
   <rect x="0" y="0" width="21590" height="12700"/>
  </clipPath>
 </defs>
 <defs class="TextShapeIndex">
  <g ooo:slide="id1" ooo:id-list="id3 id4 id5 id6 id7 id8 id9 id10 id11 id12 id13 id14 id15 id16 id17 id18 id19 id20 id21 id22 id23 id24 id25 id26 id27 id28 id29 id30 id31 id32 id33 id34 id35 id36 id37 id38 id39 id40 id41 id42 id43 id44 id45 id46 id47 id48 id49 id50 id51 id52 id53 id54 id55 id56 id57 id58 id59 id60 id61 id62 id63 id64 id65 id66 id67 id68 id69 id70 id71 id72 id73 id74 id75 id76 id77 id78 id79 id80 id81 id82 id83 id84 id85 id86"/>
 </defs>
 <defs class="EmbeddedBulletChars">
  <g id="bullet-char-template(57356)" transform="scale(0.00048828125,-0.00048828125)">
   <path d="M 580,1141 L 1163,571 580,0 -4,571 580,1141 Z"/>
  </g>
  <g id="bullet-char-template(57354)" transform="scale(0.00048828125,-0.00048828125)">
   <path d="M 8,1128 L 1137,1128 1137,0 8,0 8,1128 Z"/>
  </g>
  <g id="bullet-char-template(10146)" transform="scale(0.00048828125,-0.00048828125)">
   <path d="M 174,0 L 602,739 174,1481 1456,739 174,0 Z M 1358,739 L 309,1346 659,739 1358,739 Z"/>
  </g>
  <g id="bullet-char-template(10132)" transform="scale(0.00048828125,-0.00048828125)">
   <path d="M 2015,739 L 1276,0 717,0 1260,543 174,543 174,936 1260,936 717,1481 1274,1481 2015,739 Z"/>
  </g>
  <g id="bullet-char-template(10007)" transform="scale(0.00048828125,-0.00048828125)">
   <path d="M 0,-2 C -7,14 -16,27 -25,37 L 356,567 C 262,823 215,952 215,954 215,979 228,992 255,992 264,992 276,990 289,987 310,991 331,999 354,1012 L 381,999 492,748 772,1049 836,1024 860,1049 C 881,1039 901,1025 922,1006 886,937 835,863 770,784 769,783 710,716 594,584 L 774,223 C 774,196 753,168 711,139 L 727,119 C 717,90 699,76 672,76 641,76 570,178 457,381 L 164,-76 C 142,-110 111,-127 72,-127 30,-127 9,-110 8,-76 1,-67 -2,-52 -2,-32 -2,-23 -1,-13 0,-2 Z"/>
  </g>
  <g id="bullet-char-template(10004)" transform="scale(0.00048828125,-0.00048828125)">
   <path d="M 285,-33 C 182,-33 111,30 74,156 52,228 41,333 41,471 41,549 55,616 82,672 116,743 169,778 240,778 293,778 328,747 346,684 L 369,508 C 377,444 397,411 428,410 L 1163,1116 C 1174,1127 1196,1133 1229,1133 1271,1133 1292,1118 1292,1087 L 1292,965 C 1292,929 1282,901 1262,881 L 442,47 C 390,-6 338,-33 285,-33 Z"/>
  </g>
  <g id="bullet-char-template(9679)" transform="scale(0.00048828125,-0.00048828125)">
   <path d="M 813,0 C 632,0 489,54 383,161 276,268 223,411 223,592 223,773 276,916 383,1023 489,1130 632,1184 813,1184 992,1184 1136,1130 1245,1023 1353,916 1407,772 1407,592 1407,412 1353,268 1245,161 1136,54 992,0 813,0 Z"/>
  </g>
  <g id="bullet-char-template(8226)" transform="scale(0.00048828125,-0.00048828125)">
   <path d="M 346,457 C 273,457 209,483 155,535 101,586 74,649 74,723 74,796 101,859 155,911 209,963 273,989 346,989 419,989 480,963 531,910 582,859 608,796 608,723 608,648 583,586 532,535 482,483 420,457 346,457 Z"/>
  </g>
  <g id="bullet-char-template(8211)" transform="scale(0.00048828125,-0.00048828125)">
   <path d="M -4,459 L 1135,459 1135,606 -4,606 -4,459 Z"/>
  </g>
 </defs>
 <defs class="TextEmbeddedBitmaps"/>
 <g>
  <g id="id2" class="Master_Slide">
   <g id="bg-id2" class="Background"/>
   <g id="bo-id2" class="BackgroundObjects"/>
  </g>
 </g>
 <g class="SlideGroup">
  <g>
   <g id="id1" class="Slide" clip-path="url(#presentation_clip_path)">
    <g class="Page">
     <g class="com.sun.star.drawing.LineShape">
      <g id="id3">
       <path fill="none" stroke="rgb(0,0,0)" d="M 3410,11141 L 3410,2427"/>
       <path fill="rgb(0,0,0)" stroke="none" d="M 3410,1997 L 3260,2447 3560,2447 3410,1997 Z"/>
      </g>
     </g>
     <g class="com.sun.star.drawing.LineShape">
      <g id="id4">
       <path fill="none" stroke="rgb(0,0,0)" d="M 3412,11139 L 15937,11139"/>
       <path fill="rgb(0,0,0)" stroke="none" d="M 16367,11139 L 15917,10989 15917,11289 16367,11139 Z"/>
      </g>
     </g>
     <g class="com.sun.star.drawing.CustomShape">
      <g id="id5">
       <path fill="rgb(114,159,207)" stroke="none" d="M 6699,3329 C 6761,3329 6810,3377 6810,3439 6810,3501 6761,3550 6699,3550 6637,3550 6589,3501 6589,3439 6589,3377 6637,3329 6699,3329 Z M 6589,3329 L 6589,3329 Z M 6811,3551 L 6811,3551 Z"/>
       <path fill="none" stroke="rgb(52,101,175)" d="M 6699,3329 C 6761,3329 6810,3377 6810,3439 6810,3501 6761,3550 6699,3550 6637,3550 6589,3501 6589,3439 6589,3377 6637,3329 6699,3329 Z"/>
       <path fill="none" stroke="rgb(52,101,175)" d="M 6589,3329 L 6589,3329 Z"/>
       <path fill="none" stroke="rgb(52,101,175)" d="M 6811,3551 L 6811,3551 Z"/>
      </g>
     </g>
     <g class="com.sun.star.drawing.CustomShape">
      <g id="id6">
       <path fill="rgb(197,0,11)" stroke="none" d="M 6699,3710 C 6761,3710 6810,3758 6810,3820 6810,3882 6761,3931 6699,3931 6637,3931 6589,3882 6589,3820 6589,3758 6637,3710 6699,3710 Z M 6589,3710 L 6589,3710 Z M 6811,3932 L 6811,3932 Z"/>
       <path fill="none" stroke="rgb(197,0,11)" d="M 6699,3710 C 6761,3710 6810,3758 6810,3820 6810,3882 6761,3931 6699,3931 6637,3931 6589,3882 6589,3820 6589,3758 6637,3710 6699,3710 Z"/>
       <path fill="none" stroke="rgb(197,0,11)" d="M 6589,3710 L 6589,3710 Z"/>
       <path fill="none" stroke="rgb(197,0,11)" d="M 6811,3932 L 6811,3932 Z"/>
      </g>
     </g>
     <g class="com.sun.star.drawing.CustomShape">
      <g id="id7">
       <path fill="rgb(114,159,207)" stroke="none" d="M 7200,3329 C 7262,3329 7311,3377 7311,3439 7311,3501 7262,3550 7200,3550 7138,3550 7090,3501 7090,3439 7090,3377 7138,3329 7200,3329 Z M 7090,3329 L 7090,3329 Z M 7312,3551 L 7312,3551 Z"/>
       <path fill="none" stroke="rgb(52,101,175)" d="M 7200,3329 C 7262,3329 7311,3377 7311,3439 7311,3501 7262,3550 7200,3550 7138,3550 7090,3501 7090,3439 7090,3377 7138,3329 7200,3329 Z"/>
       <path fill="none" stroke="rgb(52,101,175)" d="M 7090,3329 L 7090,3329 Z"/>
       <path fill="none" stroke="rgb(52,101,175)" d="M 7312,3551 L 7312,3551 Z"/>
      </g>
     </g>
     <g class="com.sun.star.drawing.CustomShape">
      <g id="id8">
       <path fill="rgb(197,0,11)" stroke="none" d="M 7200,3710 C 7262,3710 7311,3758 7311,3820 7311,3882 7262,3931 7200,3931 7138,3931 7090,3882 7090,3820 7090,3758 7138,3710 7200,3710 Z M 7090,3710 L 7090,3710 Z M 7312,3932 L 7312,3932 Z"/>
       <path fill="none" stroke="rgb(197,0,11)" d="M 7200,3710 C 7262,3710 7311,3758 7311,3820 7311,3882 7262,3931 7200,3931 7138,3931 7090,3882 7090,3820 7090,3758 7138,3710 7200,3710 Z"/>
       <path fill="none" stroke="rgb(197,0,11)" d="M 7090,3710 L 7090,3710 Z"/>
       <path fill="none" stroke="rgb(197,0,11)" d="M 7312,3932 L 7312,3932 Z"/>
      </g>
     </g>
     <g class="com.sun.star.drawing.CustomShape">
      <g id="id9">
       <path fill="rgb(114,159,207)" stroke="none" d="M 7700,3329 C 7762,3329 7811,3377 7811,3439 7811,3501 7762,3550 7700,3550 7638,3550 7590,3501 7590,3439 7590,3377 7638,3329 7700,3329 Z M 7590,3329 L 7590,3329 Z M 7812,3551 L 7812,3551 Z"/>
       <path fill="none" stroke="rgb(52,101,175)" d="M 7700,3329 C 7762,3329 7811,3377 7811,3439 7811,3501 7762,3550 7700,3550 7638,3550 7590,3501 7590,3439 7590,3377 7638,3329 7700,3329 Z"/>
       <path fill="none" stroke="rgb(52,101,175)" d="M 7590,3329 L 7590,3329 Z"/>
       <path fill="none" stroke="rgb(52,101,175)" d="M 7812,3551 L 7812,3551 Z"/>
      </g>
     </g>
     <g class="com.sun.star.drawing.CustomShape">
      <g id="id10">
       <path fill="rgb(197,0,11)" stroke="none" d="M 7700,3710 C 7762,3710 7811,3758 7811,3820 7811,3882 7762,3931 7700,3931 7638,3931 7590,3882 7590,3820 7590,3758 7638,3710 7700,3710 Z M 7590,3710 L 7590,3710 Z M 7812,3932 L 7812,3932 Z"/>
       <path fill="none" stroke="rgb(197,0,11)" d="M 7700,3710 C 7762,3710 7811,3758 7811,3820 7811,3882 7762,3931 7700,3931 7638,3931 7590,3882 7590,3820 7590,3758 7638,3710 7700,3710 Z"/>
       <path fill="none" stroke="rgb(197,0,11)" d="M 7590,3710 L 7590,3710 Z"/>
       <path fill="none" stroke="rgb(197,0,11)" d="M 7812,3932 L 7812,3932 Z"/>
      </g>
     </g>
     <g class="com.sun.star.drawing.CustomShape">
      <g id="id11">
       <path fill="rgb(114,159,207)" stroke="none" d="M 8700,3329 C 8762,3329 8811,3377 8811,3439 8811,3501 8762,3550 8700,3550 8638,3550 8590,3501 8590,3439 8590,3377 8638,3329 8700,3329 Z M 8590,3329 L 8590,3329 Z M 8812,3551 L 8812,3551 Z"/>
       <path fill="none" stroke="rgb(52,101,175)" d="M 8700,3329 C 8762,3329 8811,3377 8811,3439 8811,3501 8762,3550 8700,3550 8638,3550 8590,3501 8590,3439 8590,3377 8638,3329 8700,3329 Z"/>
       <path fill="none" stroke="rgb(52,101,175)" d="M 8590,3329 L 8590,3329 Z"/>
       <path fill="none" stroke="rgb(52,101,175)" d="M 8812,3551 L 8812,3551 Z"/>
      </g>
     </g>
     <g class="com.sun.star.drawing.CustomShape">
      <g id="id12">
       <path fill="rgb(197,0,11)" stroke="none" d="M 8700,3710 C 8762,3710 8811,3758 8811,3820 8811,3882 8762,3931 8700,3931 8638,3931 8590,3882 8590,3820 8590,3758 8638,3710 8700,3710 Z M 8590,3710 L 8590,3710 Z M 8812,3932 L 8812,3932 Z"/>
       <path fill="none" stroke="rgb(197,0,11)" d="M 8700,3710 C 8762,3710 8811,3758 8811,3820 8811,3882 8762,3931 8700,3931 8638,3931 8590,3882 8590,3820 8590,3758 8638,3710 8700,3710 Z"/>
       <path fill="none" stroke="rgb(197,0,11)" d="M 8590,3710 L 8590,3710 Z"/>
       <path fill="none" stroke="rgb(197,0,11)" d="M 8812,3932 L 8812,3932 Z"/>
      </g>
     </g>
     <g class="com.sun.star.drawing.CustomShape">
      <g id="id13">
       <path fill="rgb(114,159,207)" stroke="none" d="M 8201,3329 C 8263,3329 8312,3377 8312,3439 8312,3501 8263,3550 8201,3550 8139,3550 8091,3501 8091,3439 8091,3377 8139,3329 8201,3329 Z M 8091,3329 L 8091,3329 Z M 8313,3551 L 8313,3551 Z"/>
       <path fill="none" stroke="rgb(52,101,175)" d="M 8201,3329 C 8263,3329 8312,3377 8312,3439 8312,3501 8263,3550 8201,3550 8139,3550 8091,3501 8091,3439 8091,3377 8139,3329 8201,3329 Z"/>
       <path fill="none" stroke="rgb(52,101,175)" d="M 8091,3329 L 8091,3329 Z"/>
       <path fill="none" stroke="rgb(52,101,175)" d="M 8313,3551 L 8313,3551 Z"/>
      </g>
     </g>
     <g class="com.sun.star.drawing.CustomShape">
      <g id="id14">
       <path fill="rgb(197,0,11)" stroke="none" d="M 8201,3710 C 8263,3710 8312,3758 8312,3820 8312,3882 8263,3931 8201,3931 8139,3931 8091,3882 8091,3820 8091,3758 8139,3710 8201,3710 Z M 8091,3710 L 8091,3710 Z M 8313,3932 L 8313,3932 Z"/>
       <path fill="none" stroke="rgb(197,0,11)" d="M 8201,3710 C 8263,3710 8312,3758 8312,3820 8312,3882 8263,3931 8201,3931 8139,3931 8091,3882 8091,3820 8091,3758 8139,3710 8201,3710 Z"/>
       <path fill="none" stroke="rgb(197,0,11)" d="M 8091,3710 L 8091,3710 Z"/>
       <path fill="none" stroke="rgb(197,0,11)" d="M 8313,3932 L 8313,3932 Z"/>
      </g>
     </g>
     <g class="com.sun.star.drawing.CustomShape">
      <g id="id15">
       <path fill="rgb(114,159,207)" stroke="none" d="M 6699,9129 C 6761,9129 6810,9177 6810,9239 6810,9301 6761,9350 6699,9350 6637,9350 6589,9301 6589,9239 6589,9177 6637,9129 6699,9129 Z M 6589,9129 L 6589,9129 Z M 6811,9351 L 6811,9351 Z"/>
       <path fill="none" stroke="rgb(52,101,175)" d="M 6699,9129 C 6761,9129 6810,9177 6810,9239 6810,9301 6761,9350 6699,9350 6637,9350 6589,9301 6589,9239 6589,9177 6637,9129 6699,9129 Z"/>
       <path fill="none" stroke="rgb(52,101,175)" d="M 6589,9129 L 6589,9129 Z"/>
       <path fill="none" stroke="rgb(52,101,175)" d="M 6811,9351 L 6811,9351 Z"/>
      </g>
     </g>
     <g class="com.sun.star.drawing.CustomShape">
      <g id="id16">
       <path fill="rgb(197,0,11)" stroke="none" d="M 6699,8710 C 6761,8710 6810,8758 6810,8820 6810,8882 6761,8931 6699,8931 6637,8931 6589,8882 6589,8820 6589,8758 6637,8710 6699,8710 Z M 6589,8710 L 6589,8710 Z M 6811,8932 L 6811,8932 Z"/>
       <path fill="none" stroke="rgb(197,0,11)" d="M 6699,8710 C 6761,8710 6810,8758 6810,8820 6810,8882 6761,8931 6699,8931 6637,8931 6589,8882 6589,8820 6589,8758 6637,8710 6699,8710 Z"/>
       <path fill="none" stroke="rgb(197,0,11)" d="M 6589,8710 L 6589,8710 Z"/>
       <path fill="none" stroke="rgb(197,0,11)" d="M 6811,8932 L 6811,8932 Z"/>
      </g>
     </g>
     <g class="com.sun.star.drawing.CustomShape">
      <g id="id17">
       <path fill="rgb(114,159,207)" stroke="none" d="M 7200,9129 C 7262,9129 7311,9177 7311,9239 7311,9301 7262,9350 7200,9350 7138,9350 7090,9301 7090,9239 7090,9177 7138,9129 7200,9129 Z M 7090,9129 L 7090,9129 Z M 7312,9351 L 7312,9351 Z"/>
       <path fill="none" stroke="rgb(52,101,175)" d="M 7200,9129 C 7262,9129 7311,9177 7311,9239 7311,9301 7262,9350 7200,9350 7138,9350 7090,9301 7090,9239 7090,9177 7138,9129 7200,9129 Z"/>
       <path fill="none" stroke="rgb(52,101,175)" d="M 7090,9129 L 7090,9129 Z"/>
       <path fill="none" stroke="rgb(52,101,175)" d="M 7312,9351 L 7312,9351 Z"/>
      </g>
     </g>
     <g class="com.sun.star.drawing.CustomShape">
      <g id="id18">
       <path fill="rgb(197,0,11)" stroke="none" d="M 7200,8710 C 7262,8710 7311,8758 7311,8820 7311,8882 7262,8931 7200,8931 7138,8931 7090,8882 7090,8820 7090,8758 7138,8710 7200,8710 Z M 7090,8710 L 7090,8710 Z M 7312,8932 L 7312,8932 Z"/>
       <path fill="none" stroke="rgb(197,0,11)" d="M 7200,8710 C 7262,8710 7311,8758 7311,8820 7311,8882 7262,8931 7200,8931 7138,8931 7090,8882 7090,8820 7090,8758 7138,8710 7200,8710 Z"/>
       <path fill="none" stroke="rgb(197,0,11)" d="M 7090,8710 L 7090,8710 Z"/>
       <path fill="none" stroke="rgb(197,0,11)" d="M 7312,8932 L 7312,8932 Z"/>
      </g>
     </g>
     <g class="com.sun.star.drawing.CustomShape">
      <g id="id19">
       <path fill="rgb(114,159,207)" stroke="none" d="M 7700,9129 C 7762,9129 7811,9177 7811,9239 7811,9301 7762,9350 7700,9350 7638,9350 7590,9301 7590,9239 7590,9177 7638,9129 7700,9129 Z M 7590,9129 L 7590,9129 Z M 7812,9351 L 7812,9351 Z"/>
       <path fill="none" stroke="rgb(52,101,175)" d="M 7700,9129 C 7762,9129 7811,9177 7811,9239 7811,9301 7762,9350 7700,9350 7638,9350 7590,9301 7590,9239 7590,9177 7638,9129 7700,9129 Z"/>
       <path fill="none" stroke="rgb(52,101,175)" d="M 7590,9129 L 7590,9129 Z"/>
       <path fill="none" stroke="rgb(52,101,175)" d="M 7812,9351 L 7812,9351 Z"/>
      </g>
     </g>
     <g class="com.sun.star.drawing.CustomShape">
      <g id="id20">
       <path fill="rgb(197,0,11)" stroke="none" d="M 7700,8710 C 7762,8710 7811,8758 7811,8820 7811,8882 7762,8931 7700,8931 7638,8931 7590,8882 7590,8820 7590,8758 7638,8710 7700,8710 Z M 7590,8710 L 7590,8710 Z M 7812,8932 L 7812,8932 Z"/>
       <path fill="none" stroke="rgb(197,0,11)" d="M 7700,8710 C 7762,8710 7811,8758 7811,8820 7811,8882 7762,8931 7700,8931 7638,8931 7590,8882 7590,8820 7590,8758 7638,8710 7700,8710 Z"/>
       <path fill="none" stroke="rgb(197,0,11)" d="M 7590,8710 L 7590,8710 Z"/>
       <path fill="none" stroke="rgb(197,0,11)" d="M 7812,8932 L 7812,8932 Z"/>
      </g>
     </g>
     <g class="com.sun.star.drawing.CustomShape">
      <g id="id21">
       <path fill="rgb(114,159,207)" stroke="none" d="M 8700,9129 C 8762,9129 8811,9177 8811,9239 8811,9301 8762,9350 8700,9350 8638,9350 8590,9301 8590,9239 8590,9177 8638,9129 8700,9129 Z M 8590,9129 L 8590,9129 Z M 8812,9351 L 8812,9351 Z"/>
       <path fill="none" stroke="rgb(52,101,175)" d="M 8700,9129 C 8762,9129 8811,9177 8811,9239 8811,9301 8762,9350 8700,9350 8638,9350 8590,9301 8590,9239 8590,9177 8638,9129 8700,9129 Z"/>
       <path fill="none" stroke="rgb(52,101,175)" d="M 8590,9129 L 8590,9129 Z"/>
       <path fill="none" stroke="rgb(52,101,175)" d="M 8812,9351 L 8812,9351 Z"/>
      </g>
     </g>
     <g class="com.sun.star.drawing.CustomShape">
      <g id="id22">
       <path fill="rgb(197,0,11)" stroke="none" d="M 8700,8710 C 8762,8710 8811,8758 8811,8820 8811,8882 8762,8931 8700,8931 8638,8931 8590,8882 8590,8820 8590,8758 8638,8710 8700,8710 Z M 8590,8710 L 8590,8710 Z M 8812,8932 L 8812,8932 Z"/>
       <path fill="none" stroke="rgb(197,0,11)" d="M 8700,8710 C 8762,8710 8811,8758 8811,8820 8811,8882 8762,8931 8700,8931 8638,8931 8590,8882 8590,8820 8590,8758 8638,8710 8700,8710 Z"/>
       <path fill="none" stroke="rgb(197,0,11)" d="M 8590,8710 L 8590,8710 Z"/>
       <path fill="none" stroke="rgb(197,0,11)" d="M 8812,8932 L 8812,8932 Z"/>
      </g>
     </g>
     <g class="com.sun.star.drawing.CustomShape">
      <g id="id23">
       <path fill="rgb(114,159,207)" stroke="none" d="M 8201,9129 C 8263,9129 8312,9177 8312,9239 8312,9301 8263,9350 8201,9350 8139,9350 8091,9301 8091,9239 8091,9177 8139,9129 8201,9129 Z M 8091,9129 L 8091,9129 Z M 8313,9351 L 8313,9351 Z"/>
       <path fill="none" stroke="rgb(52,101,175)" d="M 8201,9129 C 8263,9129 8312,9177 8312,9239 8312,9301 8263,9350 8201,9350 8139,9350 8091,9301 8091,9239 8091,9177 8139,9129 8201,9129 Z"/>
       <path fill="none" stroke="rgb(52,101,175)" d="M 8091,9129 L 8091,9129 Z"/>
       <path fill="none" stroke="rgb(52,101,175)" d="M 8313,9351 L 8313,9351 Z"/>
      </g>
     </g>
     <g class="com.sun.star.drawing.CustomShape">
      <g id="id24">
       <path fill="rgb(197,0,11)" stroke="none" d="M 8201,8710 C 8263,8710 8312,8758 8312,8820 8312,8882 8263,8931 8201,8931 8139,8931 8091,8882 8091,8820 8091,8758 8139,8710 8201,8710 Z M 8091,8710 L 8091,8710 Z M 8313,8932 L 8313,8932 Z"/>
       <path fill="none" stroke="rgb(197,0,11)" d="M 8201,8710 C 8263,8710 8312,8758 8312,8820 8312,8882 8263,8931 8201,8931 8139,8931 8091,8882 8091,8820 8091,8758 8139,8710 8201,8710 Z"/>
       <path fill="none" stroke="rgb(197,0,11)" d="M 8091,8710 L 8091,8710 Z"/>
       <path fill="none" stroke="rgb(197,0,11)" d="M 8313,8932 L 8313,8932 Z"/>
      </g>
     </g>
     <g class="com.sun.star.drawing.CustomShape">
      <g id="id25">
       <path fill="rgb(114,159,207)" stroke="none" d="M 9199,3330 C 9261,3330 9310,3378 9310,3440 9310,3502 9261,3551 9199,3551 9137,3551 9089,3502 9089,3440 9089,3378 9137,3330 9199,3330 Z M 9089,3330 L 9089,3330 Z M 9311,3552 L 9311,3552 Z"/>
       <path fill="none" stroke="rgb(52,101,175)" d="M 9199,3330 C 9261,3330 9310,3378 9310,3440 9310,3502 9261,3551 9199,3551 9137,3551 9089,3502 9089,3440 9089,3378 9137,3330 9199,3330 Z"/>
       <path fill="none" stroke="rgb(52,101,175)" d="M 9089,3330 L 9089,3330 Z"/>
       <path fill="none" stroke="rgb(52,101,175)" d="M 9311,3552 L 9311,3552 Z"/>
      </g>
     </g>
     <g class="com.sun.star.drawing.CustomShape">
      <g id="id26">
       <path fill="rgb(197,0,11)" stroke="none" d="M 9199,3711 C 9261,3711 9310,3759 9310,3821 9310,3883 9261,3932 9199,3932 9137,3932 9089,3883 9089,3821 9089,3759 9137,3711 9199,3711 Z M 9089,3711 L 9089,3711 Z M 9311,3933 L 9311,3933 Z"/>
       <path fill="none" stroke="rgb(197,0,11)" d="M 9199,3711 C 9261,3711 9310,3759 9310,3821 9310,3883 9261,3932 9199,3932 9137,3932 9089,3883 9089,3821 9089,3759 9137,3711 9199,3711 Z"/>
       <path fill="none" stroke="rgb(197,0,11)" d="M 9089,3711 L 9089,3711 Z"/>
       <path fill="none" stroke="rgb(197,0,11)" d="M 9311,3933 L 9311,3933 Z"/>
      </g>
     </g>
     <g class="com.sun.star.drawing.CustomShape">
      <g id="id27">
       <path fill="rgb(114,159,207)" stroke="none" d="M 9700,3330 C 9762,3330 9811,3378 9811,3440 9811,3502 9762,3551 9700,3551 9638,3551 9590,3502 9590,3440 9590,3378 9638,3330 9700,3330 Z M 9590,3330 L 9590,3330 Z M 9812,3552 L 9812,3552 Z"/>
       <path fill="none" stroke="rgb(52,101,175)" d="M 9700,3330 C 9762,3330 9811,3378 9811,3440 9811,3502 9762,3551 9700,3551 9638,3551 9590,3502 9590,3440 9590,3378 9638,3330 9700,3330 Z"/>
       <path fill="none" stroke="rgb(52,101,175)" d="M 9590,3330 L 9590,3330 Z"/>
       <path fill="none" stroke="rgb(52,101,175)" d="M 9812,3552 L 9812,3552 Z"/>
      </g>
     </g>
     <g class="com.sun.star.drawing.CustomShape">
      <g id="id28">
       <path fill="rgb(197,0,11)" stroke="none" d="M 9700,3711 C 9762,3711 9811,3759 9811,3821 9811,3883 9762,3932 9700,3932 9638,3932 9590,3883 9590,3821 9590,3759 9638,3711 9700,3711 Z M 9590,3711 L 9590,3711 Z M 9812,3933 L 9812,3933 Z"/>
       <path fill="none" stroke="rgb(197,0,11)" d="M 9700,3711 C 9762,3711 9811,3759 9811,3821 9811,3883 9762,3932 9700,3932 9638,3932 9590,3883 9590,3821 9590,3759 9638,3711 9700,3711 Z"/>
       <path fill="none" stroke="rgb(197,0,11)" d="M 9590,3711 L 9590,3711 Z"/>
       <path fill="none" stroke="rgb(197,0,11)" d="M 9812,3933 L 9812,3933 Z"/>
      </g>
     </g>
     <g class="com.sun.star.drawing.CustomShape">
      <g id="id29">
       <path fill="rgb(114,159,207)" stroke="none" d="M 10200,3330 C 10262,3330 10311,3378 10311,3440 10311,3502 10262,3551 10200,3551 10138,3551 10090,3502 10090,3440 10090,3378 10138,3330 10200,3330 Z M 10090,3330 L 10090,3330 Z M 10312,3552 L 10312,3552 Z"/>
       <path fill="none" stroke="rgb(52,101,175)" d="M 10200,3330 C 10262,3330 10311,3378 10311,3440 10311,3502 10262,3551 10200,3551 10138,3551 10090,3502 10090,3440 10090,3378 10138,3330 10200,3330 Z"/>
       <path fill="none" stroke="rgb(52,101,175)" d="M 10090,3330 L 10090,3330 Z"/>
       <path fill="none" stroke="rgb(52,101,175)" d="M 10312,3552 L 10312,3552 Z"/>
      </g>
     </g>
     <g class="com.sun.star.drawing.CustomShape">
      <g id="id30">
       <path fill="rgb(197,0,11)" stroke="none" d="M 10200,3711 C 10262,3711 10311,3759 10311,3821 10311,3883 10262,3932 10200,3932 10138,3932 10090,3883 10090,3821 10090,3759 10138,3711 10200,3711 Z M 10090,3711 L 10090,3711 Z M 10312,3933 L 10312,3933 Z"/>
       <path fill="none" stroke="rgb(197,0,11)" d="M 10200,3711 C 10262,3711 10311,3759 10311,3821 10311,3883 10262,3932 10200,3932 10138,3932 10090,3883 10090,3821 10090,3759 10138,3711 10200,3711 Z"/>
       <path fill="none" stroke="rgb(197,0,11)" d="M 10090,3711 L 10090,3711 Z"/>
       <path fill="none" stroke="rgb(197,0,11)" d="M 10312,3933 L 10312,3933 Z"/>
      </g>
     </g>
     <g class="com.sun.star.drawing.CustomShape">
      <g id="id31">
       <path fill="rgb(114,159,207)" stroke="none" d="M 11200,3330 C 11262,3330 11311,3378 11311,3440 11311,3502 11262,3551 11200,3551 11138,3551 11090,3502 11090,3440 11090,3378 11138,3330 11200,3330 Z M 11090,3330 L 11090,3330 Z M 11312,3552 L 11312,3552 Z"/>
       <path fill="none" stroke="rgb(52,101,175)" d="M 11200,3330 C 11262,3330 11311,3378 11311,3440 11311,3502 11262,3551 11200,3551 11138,3551 11090,3502 11090,3440 11090,3378 11138,3330 11200,3330 Z"/>
       <path fill="none" stroke="rgb(52,101,175)" d="M 11090,3330 L 11090,3330 Z"/>
       <path fill="none" stroke="rgb(52,101,175)" d="M 11312,3552 L 11312,3552 Z"/>
      </g>
     </g>
     <g class="com.sun.star.drawing.CustomShape">
      <g id="id32">
       <path fill="rgb(197,0,11)" stroke="none" d="M 11200,3711 C 11262,3711 11311,3759 11311,3821 11311,3883 11262,3932 11200,3932 11138,3932 11090,3883 11090,3821 11090,3759 11138,3711 11200,3711 Z M 11090,3711 L 11090,3711 Z M 11312,3933 L 11312,3933 Z"/>
       <path fill="none" stroke="rgb(197,0,11)" d="M 11200,3711 C 11262,3711 11311,3759 11311,3821 11311,3883 11262,3932 11200,3932 11138,3932 11090,3883 11090,3821 11090,3759 11138,3711 11200,3711 Z"/>
       <path fill="none" stroke="rgb(197,0,11)" d="M 11090,3711 L 11090,3711 Z"/>
       <path fill="none" stroke="rgb(197,0,11)" d="M 11312,3933 L 11312,3933 Z"/>
      </g>
     </g>
     <g class="com.sun.star.drawing.CustomShape">
      <g id="id33">
       <path fill="rgb(114,159,207)" stroke="none" d="M 10701,3330 C 10763,3330 10812,3378 10812,3440 10812,3502 10763,3551 10701,3551 10639,3551 10591,3502 10591,3440 10591,3378 10639,3330 10701,3330 Z M 10591,3330 L 10591,3330 Z M 10813,3552 L 10813,3552 Z"/>
       <path fill="none" stroke="rgb(52,101,175)" d="M 10701,3330 C 10763,3330 10812,3378 10812,3440 10812,3502 10763,3551 10701,3551 10639,3551 10591,3502 10591,3440 10591,3378 10639,3330 10701,3330 Z"/>
       <path fill="none" stroke="rgb(52,101,175)" d="M 10591,3330 L 10591,3330 Z"/>
       <path fill="none" stroke="rgb(52,101,175)" d="M 10813,3552 L 10813,3552 Z"/>
      </g>
     </g>
     <g class="com.sun.star.drawing.CustomShape">
      <g id="id34">
       <path fill="rgb(197,0,11)" stroke="none" d="M 10701,3711 C 10763,3711 10812,3759 10812,3821 10812,3883 10763,3932 10701,3932 10639,3932 10591,3883 10591,3821 10591,3759 10639,3711 10701,3711 Z M 10591,3711 L 10591,3711 Z M 10813,3933 L 10813,3933 Z"/>
       <path fill="none" stroke="rgb(197,0,11)" d="M 10701,3711 C 10763,3711 10812,3759 10812,3821 10812,3883 10763,3932 10701,3932 10639,3932 10591,3883 10591,3821 10591,3759 10639,3711 10701,3711 Z"/>
       <path fill="none" stroke="rgb(197,0,11)" d="M 10591,3711 L 10591,3711 Z"/>
       <path fill="none" stroke="rgb(197,0,11)" d="M 10813,3933 L 10813,3933 Z"/>
      </g>
     </g>
     <g class="com.sun.star.drawing.CustomShape">
      <g id="id35">
       <path fill="rgb(114,159,207)" stroke="none" d="M 9199,9130 C 9261,9130 9310,9178 9310,9240 9310,9302 9261,9351 9199,9351 9137,9351 9089,9302 9089,9240 9089,9178 9137,9130 9199,9130 Z M 9089,9130 L 9089,9130 Z M 9311,9352 L 9311,9352 Z"/>
       <path fill="none" stroke="rgb(52,101,175)" d="M 9199,9130 C 9261,9130 9310,9178 9310,9240 9310,9302 9261,9351 9199,9351 9137,9351 9089,9302 9089,9240 9089,9178 9137,9130 9199,9130 Z"/>
       <path fill="none" stroke="rgb(52,101,175)" d="M 9089,9130 L 9089,9130 Z"/>
       <path fill="none" stroke="rgb(52,101,175)" d="M 9311,9352 L 9311,9352 Z"/>
      </g>
     </g>
     <g class="com.sun.star.drawing.CustomShape">
      <g id="id36">
       <path fill="rgb(197,0,11)" stroke="none" d="M 9199,8711 C 9261,8711 9310,8759 9310,8821 9310,8883 9261,8932 9199,8932 9137,8932 9089,8883 9089,8821 9089,8759 9137,8711 9199,8711 Z M 9089,8711 L 9089,8711 Z M 9311,8933 L 9311,8933 Z"/>
       <path fill="none" stroke="rgb(197,0,11)" d="M 9199,8711 C 9261,8711 9310,8759 9310,8821 9310,8883 9261,8932 9199,8932 9137,8932 9089,8883 9089,8821 9089,8759 9137,8711 9199,8711 Z"/>
       <path fill="none" stroke="rgb(197,0,11)" d="M 9089,8711 L 9089,8711 Z"/>
       <path fill="none" stroke="rgb(197,0,11)" d="M 9311,8933 L 9311,8933 Z"/>
      </g>
     </g>
     <g class="com.sun.star.drawing.CustomShape">
      <g id="id37">
       <path fill="rgb(114,159,207)" stroke="none" d="M 9700,9130 C 9762,9130 9811,9178 9811,9240 9811,9302 9762,9351 9700,9351 9638,9351 9590,9302 9590,9240 9590,9178 9638,9130 9700,9130 Z M 9590,9130 L 9590,9130 Z M 9812,9352 L 9812,9352 Z"/>
       <path fill="none" stroke="rgb(52,101,175)" d="M 9700,9130 C 9762,9130 9811,9178 9811,9240 9811,9302 9762,9351 9700,9351 9638,9351 9590,9302 9590,9240 9590,9178 9638,9130 9700,9130 Z"/>
       <path fill="none" stroke="rgb(52,101,175)" d="M 9590,9130 L 9590,9130 Z"/>
       <path fill="none" stroke="rgb(52,101,175)" d="M 9812,9352 L 9812,9352 Z"/>
      </g>
     </g>
     <g class="com.sun.star.drawing.CustomShape">
      <g id="id38">
       <path fill="rgb(197,0,11)" stroke="none" d="M 9700,8711 C 9762,8711 9811,8759 9811,8821 9811,8883 9762,8932 9700,8932 9638,8932 9590,8883 9590,8821 9590,8759 9638,8711 9700,8711 Z M 9590,8711 L 9590,8711 Z M 9812,8933 L 9812,8933 Z"/>
       <path fill="none" stroke="rgb(197,0,11)" d="M 9700,8711 C 9762,8711 9811,8759 9811,8821 9811,8883 9762,8932 9700,8932 9638,8932 9590,8883 9590,8821 9590,8759 9638,8711 9700,8711 Z"/>
       <path fill="none" stroke="rgb(197,0,11)" d="M 9590,8711 L 9590,8711 Z"/>
       <path fill="none" stroke="rgb(197,0,11)" d="M 9812,8933 L 9812,8933 Z"/>
      </g>
     </g>
     <g class="com.sun.star.drawing.CustomShape">
      <g id="id39">
       <path fill="rgb(114,159,207)" stroke="none" d="M 10200,9130 C 10262,9130 10311,9178 10311,9240 10311,9302 10262,9351 10200,9351 10138,9351 10090,9302 10090,9240 10090,9178 10138,9130 10200,9130 Z M 10090,9130 L 10090,9130 Z M 10312,9352 L 10312,9352 Z"/>
       <path fill="none" stroke="rgb(52,101,175)" d="M 10200,9130 C 10262,9130 10311,9178 10311,9240 10311,9302 10262,9351 10200,9351 10138,9351 10090,9302 10090,9240 10090,9178 10138,9130 10200,9130 Z"/>
       <path fill="none" stroke="rgb(52,101,175)" d="M 10090,9130 L 10090,9130 Z"/>
       <path fill="none" stroke="rgb(52,101,175)" d="M 10312,9352 L 10312,9352 Z"/>
      </g>
     </g>
     <g class="com.sun.star.drawing.CustomShape">
      <g id="id40">
       <path fill="rgb(197,0,11)" stroke="none" d="M 10200,8711 C 10262,8711 10311,8759 10311,8821 10311,8883 10262,8932 10200,8932 10138,8932 10090,8883 10090,8821 10090,8759 10138,8711 10200,8711 Z M 10090,8711 L 10090,8711 Z M 10312,8933 L 10312,8933 Z"/>
       <path fill="none" stroke="rgb(197,0,11)" d="M 10200,8711 C 10262,8711 10311,8759 10311,8821 10311,8883 10262,8932 10200,8932 10138,8932 10090,8883 10090,8821 10090,8759 10138,8711 10200,8711 Z"/>
       <path fill="none" stroke="rgb(197,0,11)" d="M 10090,8711 L 10090,8711 Z"/>
       <path fill="none" stroke="rgb(197,0,11)" d="M 10312,8933 L 10312,8933 Z"/>
      </g>
     </g>
     <g class="com.sun.star.drawing.CustomShape">
      <g id="id41">
       <path fill="rgb(114,159,207)" stroke="none" d="M 11200,9130 C 11262,9130 11311,9178 11311,9240 11311,9302 11262,9351 11200,9351 11138,9351 11090,9302 11090,9240 11090,9178 11138,9130 11200,9130 Z M 11090,9130 L 11090,9130 Z M 11312,9352 L 11312,9352 Z"/>
       <path fill="none" stroke="rgb(52,101,175)" d="M 11200,9130 C 11262,9130 11311,9178 11311,9240 11311,9302 11262,9351 11200,9351 11138,9351 11090,9302 11090,9240 11090,9178 11138,9130 11200,9130 Z"/>
       <path fill="none" stroke="rgb(52,101,175)" d="M 11090,9130 L 11090,9130 Z"/>
       <path fill="none" stroke="rgb(52,101,175)" d="M 11312,9352 L 11312,9352 Z"/>
      </g>
     </g>
     <g class="com.sun.star.drawing.CustomShape">
      <g id="id42">
       <path fill="rgb(197,0,11)" stroke="none" d="M 11200,8711 C 11262,8711 11311,8759 11311,8821 11311,8883 11262,8932 11200,8932 11138,8932 11090,8883 11090,8821 11090,8759 11138,8711 11200,8711 Z M 11090,8711 L 11090,8711 Z M 11312,8933 L 11312,8933 Z"/>
       <path fill="none" stroke="rgb(197,0,11)" d="M 11200,8711 C 11262,8711 11311,8759 11311,8821 11311,8883 11262,8932 11200,8932 11138,8932 11090,8883 11090,8821 11090,8759 11138,8711 11200,8711 Z"/>
       <path fill="none" stroke="rgb(197,0,11)" d="M 11090,8711 L 11090,8711 Z"/>
       <path fill="none" stroke="rgb(197,0,11)" d="M 11312,8933 L 11312,8933 Z"/>
      </g>
     </g>
     <g class="com.sun.star.drawing.CustomShape">
      <g id="id43">
       <path fill="rgb(114,159,207)" stroke="none" d="M 10701,9130 C 10763,9130 10812,9178 10812,9240 10812,9302 10763,9351 10701,9351 10639,9351 10591,9302 10591,9240 10591,9178 10639,9130 10701,9130 Z M 10591,9130 L 10591,9130 Z M 10813,9352 L 10813,9352 Z"/>
       <path fill="none" stroke="rgb(52,101,175)" d="M 10701,9130 C 10763,9130 10812,9178 10812,9240 10812,9302 10763,9351 10701,9351 10639,9351 10591,9302 10591,9240 10591,9178 10639,9130 10701,9130 Z"/>
       <path fill="none" stroke="rgb(52,101,175)" d="M 10591,9130 L 10591,9130 Z"/>
       <path fill="none" stroke="rgb(52,101,175)" d="M 10813,9352 L 10813,9352 Z"/>
      </g>
     </g>
     <g class="com.sun.star.drawing.CustomShape">
      <g id="id44">
       <path fill="rgb(197,0,11)" stroke="none" d="M 10701,8711 C 10763,8711 10812,8759 10812,8821 10812,8883 10763,8932 10701,8932 10639,8932 10591,8883 10591,8821 10591,8759 10639,8711 10701,8711 Z M 10591,8711 L 10591,8711 Z M 10813,8933 L 10813,8933 Z"/>
       <path fill="none" stroke="rgb(197,0,11)" d="M 10701,8711 C 10763,8711 10812,8759 10812,8821 10812,8883 10763,8932 10701,8932 10639,8932 10591,8883 10591,8821 10591,8759 10639,8711 10701,8711 Z"/>
       <path fill="none" stroke="rgb(197,0,11)" d="M 10591,8711 L 10591,8711 Z"/>
       <path fill="none" stroke="rgb(197,0,11)" d="M 10813,8933 L 10813,8933 Z"/>
      </g>
     </g>
     <g class="com.sun.star.drawing.CustomShape">
      <g id="id45">
       <path fill="rgb(114,159,207)" stroke="none" d="M 11962,4089 C 11962,4151 11914,4200 11852,4200 11790,4200 11741,4151 11741,4089 11741,4027 11790,3979 11852,3979 11914,3979 11962,4027 11962,4089 Z M 11962,3979 L 11962,3979 Z M 11740,4201 L 11740,4201 Z"/>
       <path fill="none" stroke="rgb(52,101,175)" d="M 11962,4089 C 11962,4151 11914,4200 11852,4200 11790,4200 11741,4151 11741,4089 11741,4027 11790,3979 11852,3979 11914,3979 11962,4027 11962,4089 Z"/>
       <path fill="none" stroke="rgb(52,101,175)" d="M 11962,3979 L 11962,3979 Z"/>
       <path fill="none" stroke="rgb(52,101,175)" d="M 11740,4201 L 11740,4201 Z"/>
      </g>
     </g>
     <g class="com.sun.star.drawing.CustomShape">
      <g id="id46">
       <path fill="rgb(197,0,11)" stroke="none" d="M 11581,4089 C 11581,4151 11533,4200 11471,4200 11409,4200 11360,4151 11360,4089 11360,4027 11409,3979 11471,3979 11533,3979 11581,4027 11581,4089 Z M 11581,3979 L 11581,3979 Z M 11359,4201 L 11359,4201 Z"/>
       <path fill="none" stroke="rgb(197,0,11)" d="M 11581,4089 C 11581,4151 11533,4200 11471,4200 11409,4200 11360,4151 11360,4089 11360,4027 11409,3979 11471,3979 11533,3979 11581,4027 11581,4089 Z"/>
       <path fill="none" stroke="rgb(197,0,11)" d="M 11581,3979 L 11581,3979 Z"/>
       <path fill="none" stroke="rgb(197,0,11)" d="M 11359,4201 L 11359,4201 Z"/>
      </g>
     </g>
     <g class="com.sun.star.drawing.CustomShape">
      <g id="id47">
       <path fill="rgb(114,159,207)" stroke="none" d="M 11962,4590 C 11962,4652 11914,4701 11852,4701 11790,4701 11741,4652 11741,4590 11741,4528 11790,4480 11852,4480 11914,4480 11962,4528 11962,4590 Z M 11962,4480 L 11962,4480 Z M 11740,4702 L 11740,4702 Z"/>
       <path fill="none" stroke="rgb(52,101,175)" d="M 11962,4590 C 11962,4652 11914,4701 11852,4701 11790,4701 11741,4652 11741,4590 11741,4528 11790,4480 11852,4480 11914,4480 11962,4528 11962,4590 Z"/>
       <path fill="none" stroke="rgb(52,101,175)" d="M 11962,4480 L 11962,4480 Z"/>
       <path fill="none" stroke="rgb(52,101,175)" d="M 11740,4702 L 11740,4702 Z"/>
      </g>
     </g>
     <g class="com.sun.star.drawing.CustomShape">
      <g id="id48">
       <path fill="rgb(197,0,11)" stroke="none" d="M 11581,4590 C 11581,4652 11533,4701 11471,4701 11409,4701 11360,4652 11360,4590 11360,4528 11409,4480 11471,4480 11533,4480 11581,4528 11581,4590 Z M 11581,4480 L 11581,4480 Z M 11359,4702 L 11359,4702 Z"/>
       <path fill="none" stroke="rgb(197,0,11)" d="M 11581,4590 C 11581,4652 11533,4701 11471,4701 11409,4701 11360,4652 11360,4590 11360,4528 11409,4480 11471,4480 11533,4480 11581,4528 11581,4590 Z"/>
       <path fill="none" stroke="rgb(197,0,11)" d="M 11581,4480 L 11581,4480 Z"/>
       <path fill="none" stroke="rgb(197,0,11)" d="M 11359,4702 L 11359,4702 Z"/>
      </g>
     </g>
     <g class="com.sun.star.drawing.CustomShape">
      <g id="id49">
       <path fill="rgb(114,159,207)" stroke="none" d="M 11962,5090 C 11962,5152 11914,5201 11852,5201 11790,5201 11741,5152 11741,5090 11741,5028 11790,4980 11852,4980 11914,4980 11962,5028 11962,5090 Z M 11962,4980 L 11962,4980 Z M 11740,5202 L 11740,5202 Z"/>
       <path fill="none" stroke="rgb(52,101,175)" d="M 11962,5090 C 11962,5152 11914,5201 11852,5201 11790,5201 11741,5152 11741,5090 11741,5028 11790,4980 11852,4980 11914,4980 11962,5028 11962,5090 Z"/>
       <path fill="none" stroke="rgb(52,101,175)" d="M 11962,4980 L 11962,4980 Z"/>
       <path fill="none" stroke="rgb(52,101,175)" d="M 11740,5202 L 11740,5202 Z"/>
      </g>
     </g>
     <g class="com.sun.star.drawing.CustomShape">
      <g id="id50">
       <path fill="rgb(197,0,11)" stroke="none" d="M 11581,5090 C 11581,5152 11533,5201 11471,5201 11409,5201 11360,5152 11360,5090 11360,5028 11409,4980 11471,4980 11533,4980 11581,5028 11581,5090 Z M 11581,4980 L 11581,4980 Z M 11359,5202 L 11359,5202 Z"/>
       <path fill="none" stroke="rgb(197,0,11)" d="M 11581,5090 C 11581,5152 11533,5201 11471,5201 11409,5201 11360,5152 11360,5090 11360,5028 11409,4980 11471,4980 11533,4980 11581,5028 11581,5090 Z"/>
       <path fill="none" stroke="rgb(197,0,11)" d="M 11581,4980 L 11581,4980 Z"/>
       <path fill="none" stroke="rgb(197,0,11)" d="M 11359,5202 L 11359,5202 Z"/>
      </g>
     </g>
     <g class="com.sun.star.drawing.CustomShape">
      <g id="id51">
       <path fill="rgb(114,159,207)" stroke="none" d="M 11962,6090 C 11962,6152 11914,6201 11852,6201 11790,6201 11741,6152 11741,6090 11741,6028 11790,5980 11852,5980 11914,5980 11962,6028 11962,6090 Z M 11962,5980 L 11962,5980 Z M 11740,6202 L 11740,6202 Z"/>
       <path fill="none" stroke="rgb(52,101,175)" d="M 11962,6090 C 11962,6152 11914,6201 11852,6201 11790,6201 11741,6152 11741,6090 11741,6028 11790,5980 11852,5980 11914,5980 11962,6028 11962,6090 Z"/>
       <path fill="none" stroke="rgb(52,101,175)" d="M 11962,5980 L 11962,5980 Z"/>
       <path fill="none" stroke="rgb(52,101,175)" d="M 11740,6202 L 11740,6202 Z"/>
      </g>
     </g>
     <g class="com.sun.star.drawing.CustomShape">
      <g id="id52">
       <path fill="rgb(197,0,11)" stroke="none" d="M 11581,6090 C 11581,6152 11533,6201 11471,6201 11409,6201 11360,6152 11360,6090 11360,6028 11409,5980 11471,5980 11533,5980 11581,6028 11581,6090 Z M 11581,5980 L 11581,5980 Z M 11359,6202 L 11359,6202 Z"/>
       <path fill="none" stroke="rgb(197,0,11)" d="M 11581,6090 C 11581,6152 11533,6201 11471,6201 11409,6201 11360,6152 11360,6090 11360,6028 11409,5980 11471,5980 11533,5980 11581,6028 11581,6090 Z"/>
       <path fill="none" stroke="rgb(197,0,11)" d="M 11581,5980 L 11581,5980 Z"/>
       <path fill="none" stroke="rgb(197,0,11)" d="M 11359,6202 L 11359,6202 Z"/>
      </g>
     </g>
     <g class="com.sun.star.drawing.CustomShape">
      <g id="id53">
       <path fill="rgb(114,159,207)" stroke="none" d="M 11962,5591 C 11962,5653 11914,5702 11852,5702 11790,5702 11741,5653 11741,5591 11741,5529 11790,5481 11852,5481 11914,5481 11962,5529 11962,5591 Z M 11962,5481 L 11962,5481 Z M 11740,5703 L 11740,5703 Z"/>
       <path fill="none" stroke="rgb(52,101,175)" d="M 11962,5591 C 11962,5653 11914,5702 11852,5702 11790,5702 11741,5653 11741,5591 11741,5529 11790,5481 11852,5481 11914,5481 11962,5529 11962,5591 Z"/>
       <path fill="none" stroke="rgb(52,101,175)" d="M 11962,5481 L 11962,5481 Z"/>
       <path fill="none" stroke="rgb(52,101,175)" d="M 11740,5703 L 11740,5703 Z"/>
      </g>
     </g>
     <g class="com.sun.star.drawing.CustomShape">
      <g id="id54">
       <path fill="rgb(197,0,11)" stroke="none" d="M 11581,5591 C 11581,5653 11533,5702 11471,5702 11409,5702 11360,5653 11360,5591 11360,5529 11409,5481 11471,5481 11533,5481 11581,5529 11581,5591 Z M 11581,5481 L 11581,5481 Z M 11359,5703 L 11359,5703 Z"/>
       <path fill="none" stroke="rgb(197,0,11)" d="M 11581,5591 C 11581,5653 11533,5702 11471,5702 11409,5702 11360,5653 11360,5591 11360,5529 11409,5481 11471,5481 11533,5481 11581,5529 11581,5591 Z"/>
       <path fill="none" stroke="rgb(197,0,11)" d="M 11581,5481 L 11581,5481 Z"/>
       <path fill="none" stroke="rgb(197,0,11)" d="M 11359,5703 L 11359,5703 Z"/>
      </g>
     </g>
     <g class="com.sun.star.drawing.CustomShape">
      <g id="id55">
       <path fill="rgb(114,159,207)" stroke="none" d="M 6162,4089 C 6162,4151 6114,4200 6052,4200 5990,4200 5941,4151 5941,4089 5941,4027 5990,3979 6052,3979 6114,3979 6162,4027 6162,4089 Z M 6162,3979 L 6162,3979 Z M 5940,4201 L 5940,4201 Z"/>
       <path fill="none" stroke="rgb(52,101,175)" d="M 6162,4089 C 6162,4151 6114,4200 6052,4200 5990,4200 5941,4151 5941,4089 5941,4027 5990,3979 6052,3979 6114,3979 6162,4027 6162,4089 Z"/>
       <path fill="none" stroke="rgb(52,101,175)" d="M 6162,3979 L 6162,3979 Z"/>
       <path fill="none" stroke="rgb(52,101,175)" d="M 5940,4201 L 5940,4201 Z"/>
      </g>
     </g>
     <g class="com.sun.star.drawing.CustomShape">
      <g id="id56">
       <path fill="rgb(197,0,11)" stroke="none" d="M 6581,4089 C 6581,4151 6533,4200 6471,4200 6409,4200 6360,4151 6360,4089 6360,4027 6409,3979 6471,3979 6533,3979 6581,4027 6581,4089 Z M 6581,3979 L 6581,3979 Z M 6359,4201 L 6359,4201 Z"/>
       <path fill="none" stroke="rgb(197,0,11)" d="M 6581,4089 C 6581,4151 6533,4200 6471,4200 6409,4200 6360,4151 6360,4089 6360,4027 6409,3979 6471,3979 6533,3979 6581,4027 6581,4089 Z"/>
       <path fill="none" stroke="rgb(197,0,11)" d="M 6581,3979 L 6581,3979 Z"/>
       <path fill="none" stroke="rgb(197,0,11)" d="M 6359,4201 L 6359,4201 Z"/>
      </g>
     </g>
     <g class="com.sun.star.drawing.CustomShape">
      <g id="id57">
       <path fill="rgb(114,159,207)" stroke="none" d="M 6162,4590 C 6162,4652 6114,4701 6052,4701 5990,4701 5941,4652 5941,4590 5941,4528 5990,4480 6052,4480 6114,4480 6162,4528 6162,4590 Z M 6162,4480 L 6162,4480 Z M 5940,4702 L 5940,4702 Z"/>
       <path fill="none" stroke="rgb(52,101,175)" d="M 6162,4590 C 6162,4652 6114,4701 6052,4701 5990,4701 5941,4652 5941,4590 5941,4528 5990,4480 6052,4480 6114,4480 6162,4528 6162,4590 Z"/>
       <path fill="none" stroke="rgb(52,101,175)" d="M 6162,4480 L 6162,4480 Z"/>
       <path fill="none" stroke="rgb(52,101,175)" d="M 5940,4702 L 5940,4702 Z"/>
      </g>
     </g>
     <g class="com.sun.star.drawing.CustomShape">
      <g id="id58">
       <path fill="rgb(197,0,11)" stroke="none" d="M 6581,4590 C 6581,4652 6533,4701 6471,4701 6409,4701 6360,4652 6360,4590 6360,4528 6409,4480 6471,4480 6533,4480 6581,4528 6581,4590 Z M 6581,4480 L 6581,4480 Z M 6359,4702 L 6359,4702 Z"/>
       <path fill="none" stroke="rgb(197,0,11)" d="M 6581,4590 C 6581,4652 6533,4701 6471,4701 6409,4701 6360,4652 6360,4590 6360,4528 6409,4480 6471,4480 6533,4480 6581,4528 6581,4590 Z"/>
       <path fill="none" stroke="rgb(197,0,11)" d="M 6581,4480 L 6581,4480 Z"/>
       <path fill="none" stroke="rgb(197,0,11)" d="M 6359,4702 L 6359,4702 Z"/>
      </g>
     </g>
     <g class="com.sun.star.drawing.CustomShape">
      <g id="id59">
       <path fill="rgb(114,159,207)" stroke="none" d="M 6162,5090 C 6162,5152 6114,5201 6052,5201 5990,5201 5941,5152 5941,5090 5941,5028 5990,4980 6052,4980 6114,4980 6162,5028 6162,5090 Z M 6162,4980 L 6162,4980 Z M 5940,5202 L 5940,5202 Z"/>
       <path fill="none" stroke="rgb(52,101,175)" d="M 6162,5090 C 6162,5152 6114,5201 6052,5201 5990,5201 5941,5152 5941,5090 5941,5028 5990,4980 6052,4980 6114,4980 6162,5028 6162,5090 Z"/>
       <path fill="none" stroke="rgb(52,101,175)" d="M 6162,4980 L 6162,4980 Z"/>
       <path fill="none" stroke="rgb(52,101,175)" d="M 5940,5202 L 5940,5202 Z"/>
      </g>
     </g>
     <g class="com.sun.star.drawing.CustomShape">
      <g id="id60">
       <path fill="rgb(197,0,11)" stroke="none" d="M 6581,5090 C 6581,5152 6533,5201 6471,5201 6409,5201 6360,5152 6360,5090 6360,5028 6409,4980 6471,4980 6533,4980 6581,5028 6581,5090 Z M 6581,4980 L 6581,4980 Z M 6359,5202 L 6359,5202 Z"/>
       <path fill="none" stroke="rgb(197,0,11)" d="M 6581,5090 C 6581,5152 6533,5201 6471,5201 6409,5201 6360,5152 6360,5090 6360,5028 6409,4980 6471,4980 6533,4980 6581,5028 6581,5090 Z"/>
       <path fill="none" stroke="rgb(197,0,11)" d="M 6581,4980 L 6581,4980 Z"/>
       <path fill="none" stroke="rgb(197,0,11)" d="M 6359,5202 L 6359,5202 Z"/>
      </g>
     </g>
     <g class="com.sun.star.drawing.CustomShape">
      <g id="id61">
       <path fill="rgb(114,159,207)" stroke="none" d="M 6162,6090 C 6162,6152 6114,6201 6052,6201 5990,6201 5941,6152 5941,6090 5941,6028 5990,5980 6052,5980 6114,5980 6162,6028 6162,6090 Z M 6162,5980 L 6162,5980 Z M 5940,6202 L 5940,6202 Z"/>
       <path fill="none" stroke="rgb(52,101,175)" d="M 6162,6090 C 6162,6152 6114,6201 6052,6201 5990,6201 5941,6152 5941,6090 5941,6028 5990,5980 6052,5980 6114,5980 6162,6028 6162,6090 Z"/>
       <path fill="none" stroke="rgb(52,101,175)" d="M 6162,5980 L 6162,5980 Z"/>
       <path fill="none" stroke="rgb(52,101,175)" d="M 5940,6202 L 5940,6202 Z"/>
      </g>
     </g>
     <g class="com.sun.star.drawing.CustomShape">
      <g id="id62">
       <path fill="rgb(197,0,11)" stroke="none" d="M 6581,6090 C 6581,6152 6533,6201 6471,6201 6409,6201 6360,6152 6360,6090 6360,6028 6409,5980 6471,5980 6533,5980 6581,6028 6581,6090 Z M 6581,5980 L 6581,5980 Z M 6359,6202 L 6359,6202 Z"/>
       <path fill="none" stroke="rgb(197,0,11)" d="M 6581,6090 C 6581,6152 6533,6201 6471,6201 6409,6201 6360,6152 6360,6090 6360,6028 6409,5980 6471,5980 6533,5980 6581,6028 6581,6090 Z"/>
       <path fill="none" stroke="rgb(197,0,11)" d="M 6581,5980 L 6581,5980 Z"/>
       <path fill="none" stroke="rgb(197,0,11)" d="M 6359,6202 L 6359,6202 Z"/>
      </g>
     </g>
     <g class="com.sun.star.drawing.CustomShape">
      <g id="id63">
       <path fill="rgb(114,159,207)" stroke="none" d="M 6162,5591 C 6162,5653 6114,5702 6052,5702 5990,5702 5941,5653 5941,5591 5941,5529 5990,5481 6052,5481 6114,5481 6162,5529 6162,5591 Z M 6162,5481 L 6162,5481 Z M 5940,5703 L 5940,5703 Z"/>
       <path fill="none" stroke="rgb(52,101,175)" d="M 6162,5591 C 6162,5653 6114,5702 6052,5702 5990,5702 5941,5653 5941,5591 5941,5529 5990,5481 6052,5481 6114,5481 6162,5529 6162,5591 Z"/>
       <path fill="none" stroke="rgb(52,101,175)" d="M 6162,5481 L 6162,5481 Z"/>
       <path fill="none" stroke="rgb(52,101,175)" d="M 5940,5703 L 5940,5703 Z"/>
      </g>
     </g>
     <g class="com.sun.star.drawing.CustomShape">
      <g id="id64">
       <path fill="rgb(197,0,11)" stroke="none" d="M 6581,5591 C 6581,5653 6533,5702 6471,5702 6409,5702 6360,5653 6360,5591 6360,5529 6409,5481 6471,5481 6533,5481 6581,5529 6581,5591 Z M 6581,5481 L 6581,5481 Z M 6359,5703 L 6359,5703 Z"/>
       <path fill="none" stroke="rgb(197,0,11)" d="M 6581,5591 C 6581,5653 6533,5702 6471,5702 6409,5702 6360,5653 6360,5591 6360,5529 6409,5481 6471,5481 6533,5481 6581,5529 6581,5591 Z"/>
       <path fill="none" stroke="rgb(197,0,11)" d="M 6581,5481 L 6581,5481 Z"/>
       <path fill="none" stroke="rgb(197,0,11)" d="M 6359,5703 L 6359,5703 Z"/>
      </g>
     </g>
     <g class="com.sun.star.drawing.CustomShape">
      <g id="id65">
       <path fill="rgb(114,159,207)" stroke="none" d="M 11961,6589 C 11961,6651 11913,6700 11851,6700 11789,6700 11740,6651 11740,6589 11740,6527 11789,6479 11851,6479 11913,6479 11961,6527 11961,6589 Z M 11961,6479 L 11961,6479 Z M 11739,6701 L 11739,6701 Z"/>
       <path fill="none" stroke="rgb(52,101,175)" d="M 11961,6589 C 11961,6651 11913,6700 11851,6700 11789,6700 11740,6651 11740,6589 11740,6527 11789,6479 11851,6479 11913,6479 11961,6527 11961,6589 Z"/>
       <path fill="none" stroke="rgb(52,101,175)" d="M 11961,6479 L 11961,6479 Z"/>
       <path fill="none" stroke="rgb(52,101,175)" d="M 11739,6701 L 11739,6701 Z"/>
      </g>
     </g>
     <g class="com.sun.star.drawing.CustomShape">
      <g id="id66">
       <path fill="rgb(197,0,11)" stroke="none" d="M 11580,6589 C 11580,6651 11532,6700 11470,6700 11408,6700 11359,6651 11359,6589 11359,6527 11408,6479 11470,6479 11532,6479 11580,6527 11580,6589 Z M 11580,6479 L 11580,6479 Z M 11358,6701 L 11358,6701 Z"/>
       <path fill="none" stroke="rgb(197,0,11)" d="M 11580,6589 C 11580,6651 11532,6700 11470,6700 11408,6700 11359,6651 11359,6589 11359,6527 11408,6479 11470,6479 11532,6479 11580,6527 11580,6589 Z"/>
       <path fill="none" stroke="rgb(197,0,11)" d="M 11580,6479 L 11580,6479 Z"/>
       <path fill="none" stroke="rgb(197,0,11)" d="M 11358,6701 L 11358,6701 Z"/>
      </g>
     </g>
     <g class="com.sun.star.drawing.CustomShape">
      <g id="id67">
       <path fill="rgb(114,159,207)" stroke="none" d="M 11961,7090 C 11961,7152 11913,7201 11851,7201 11789,7201 11740,7152 11740,7090 11740,7028 11789,6980 11851,6980 11913,6980 11961,7028 11961,7090 Z M 11961,6980 L 11961,6980 Z M 11739,7202 L 11739,7202 Z"/>
       <path fill="none" stroke="rgb(52,101,175)" d="M 11961,7090 C 11961,7152 11913,7201 11851,7201 11789,7201 11740,7152 11740,7090 11740,7028 11789,6980 11851,6980 11913,6980 11961,7028 11961,7090 Z"/>
       <path fill="none" stroke="rgb(52,101,175)" d="M 11961,6980 L 11961,6980 Z"/>
       <path fill="none" stroke="rgb(52,101,175)" d="M 11739,7202 L 11739,7202 Z"/>
      </g>
     </g>
     <g class="com.sun.star.drawing.CustomShape">
      <g id="id68">
       <path fill="rgb(197,0,11)" stroke="none" d="M 11580,7090 C 11580,7152 11532,7201 11470,7201 11408,7201 11359,7152 11359,7090 11359,7028 11408,6980 11470,6980 11532,6980 11580,7028 11580,7090 Z M 11580,6980 L 11580,6980 Z M 11358,7202 L 11358,7202 Z"/>
       <path fill="none" stroke="rgb(197,0,11)" d="M 11580,7090 C 11580,7152 11532,7201 11470,7201 11408,7201 11359,7152 11359,7090 11359,7028 11408,6980 11470,6980 11532,6980 11580,7028 11580,7090 Z"/>
       <path fill="none" stroke="rgb(197,0,11)" d="M 11580,6980 L 11580,6980 Z"/>
       <path fill="none" stroke="rgb(197,0,11)" d="M 11358,7202 L 11358,7202 Z"/>
      </g>
     </g>
     <g class="com.sun.star.drawing.CustomShape">
      <g id="id69">
       <path fill="rgb(114,159,207)" stroke="none" d="M 11961,7590 C 11961,7652 11913,7701 11851,7701 11789,7701 11740,7652 11740,7590 11740,7528 11789,7480 11851,7480 11913,7480 11961,7528 11961,7590 Z M 11961,7480 L 11961,7480 Z M 11739,7702 L 11739,7702 Z"/>
       <path fill="none" stroke="rgb(52,101,175)" d="M 11961,7590 C 11961,7652 11913,7701 11851,7701 11789,7701 11740,7652 11740,7590 11740,7528 11789,7480 11851,7480 11913,7480 11961,7528 11961,7590 Z"/>
       <path fill="none" stroke="rgb(52,101,175)" d="M 11961,7480 L 11961,7480 Z"/>
       <path fill="none" stroke="rgb(52,101,175)" d="M 11739,7702 L 11739,7702 Z"/>
      </g>
     </g>
     <g class="com.sun.star.drawing.CustomShape">
      <g id="id70">
       <path fill="rgb(197,0,11)" stroke="none" d="M 11580,7590 C 11580,7652 11532,7701 11470,7701 11408,7701 11359,7652 11359,7590 11359,7528 11408,7480 11470,7480 11532,7480 11580,7528 11580,7590 Z M 11580,7480 L 11580,7480 Z M 11358,7702 L 11358,7702 Z"/>
       <path fill="none" stroke="rgb(197,0,11)" d="M 11580,7590 C 11580,7652 11532,7701 11470,7701 11408,7701 11359,7652 11359,7590 11359,7528 11408,7480 11470,7480 11532,7480 11580,7528 11580,7590 Z"/>
       <path fill="none" stroke="rgb(197,0,11)" d="M 11580,7480 L 11580,7480 Z"/>
       <path fill="none" stroke="rgb(197,0,11)" d="M 11358,7702 L 11358,7702 Z"/>
      </g>
     </g>
     <g class="com.sun.star.drawing.CustomShape">
      <g id="id71">
       <path fill="rgb(114,159,207)" stroke="none" d="M 11961,8590 C 11961,8652 11913,8701 11851,8701 11789,8701 11740,8652 11740,8590 11740,8528 11789,8480 11851,8480 11913,8480 11961,8528 11961,8590 Z M 11961,8480 L 11961,8480 Z M 11739,8702 L 11739,8702 Z"/>
       <path fill="none" stroke="rgb(52,101,175)" d="M 11961,8590 C 11961,8652 11913,8701 11851,8701 11789,8701 11740,8652 11740,8590 11740,8528 11789,8480 11851,8480 11913,8480 11961,8528 11961,8590 Z"/>
       <path fill="none" stroke="rgb(52,101,175)" d="M 11961,8480 L 11961,8480 Z"/>
       <path fill="none" stroke="rgb(52,101,175)" d="M 11739,8702 L 11739,8702 Z"/>
      </g>
     </g>
     <g class="com.sun.star.drawing.CustomShape">
      <g id="id72">
       <path fill="rgb(197,0,11)" stroke="none" d="M 11580,8590 C 11580,8652 11532,8701 11470,8701 11408,8701 11359,8652 11359,8590 11359,8528 11408,8480 11470,8480 11532,8480 11580,8528 11580,8590 Z M 11580,8480 L 11580,8480 Z M 11358,8702 L 11358,8702 Z"/>
       <path fill="none" stroke="rgb(197,0,11)" d="M 11580,8590 C 11580,8652 11532,8701 11470,8701 11408,8701 11359,8652 11359,8590 11359,8528 11408,8480 11470,8480 11532,8480 11580,8528 11580,8590 Z"/>
       <path fill="none" stroke="rgb(197,0,11)" d="M 11580,8480 L 11580,8480 Z"/>
       <path fill="none" stroke="rgb(197,0,11)" d="M 11358,8702 L 11358,8702 Z"/>
      </g>
     </g>
     <g class="com.sun.star.drawing.CustomShape">
      <g id="id73">
       <path fill="rgb(114,159,207)" stroke="none" d="M 11961,8091 C 11961,8153 11913,8202 11851,8202 11789,8202 11740,8153 11740,8091 11740,8029 11789,7981 11851,7981 11913,7981 11961,8029 11961,8091 Z M 11961,7981 L 11961,7981 Z M 11739,8203 L 11739,8203 Z"/>
       <path fill="none" stroke="rgb(52,101,175)" d="M 11961,8091 C 11961,8153 11913,8202 11851,8202 11789,8202 11740,8153 11740,8091 11740,8029 11789,7981 11851,7981 11913,7981 11961,8029 11961,8091 Z"/>
       <path fill="none" stroke="rgb(52,101,175)" d="M 11961,7981 L 11961,7981 Z"/>
       <path fill="none" stroke="rgb(52,101,175)" d="M 11739,8203 L 11739,8203 Z"/>
      </g>
     </g>
     <g class="com.sun.star.drawing.CustomShape">
      <g id="id74">
       <path fill="rgb(197,0,11)" stroke="none" d="M 11580,8091 C 11580,8153 11532,8202 11470,8202 11408,8202 11359,8153 11359,8091 11359,8029 11408,7981 11470,7981 11532,7981 11580,8029 11580,8091 Z M 11580,7981 L 11580,7981 Z M 11358,8203 L 11358,8203 Z"/>
       <path fill="none" stroke="rgb(197,0,11)" d="M 11580,8091 C 11580,8153 11532,8202 11470,8202 11408,8202 11359,8153 11359,8091 11359,8029 11408,7981 11470,7981 11532,7981 11580,8029 11580,8091 Z"/>
       <path fill="none" stroke="rgb(197,0,11)" d="M 11580,7981 L 11580,7981 Z"/>
       <path fill="none" stroke="rgb(197,0,11)" d="M 11358,8203 L 11358,8203 Z"/>
      </g>
     </g>
     <g class="com.sun.star.drawing.CustomShape">
      <g id="id75">
       <path fill="rgb(114,159,207)" stroke="none" d="M 6161,6589 C 6161,6651 6113,6700 6051,6700 5989,6700 5940,6651 5940,6589 5940,6527 5989,6479 6051,6479 6113,6479 6161,6527 6161,6589 Z M 6161,6479 L 6161,6479 Z M 5939,6701 L 5939,6701 Z"/>
       <path fill="none" stroke="rgb(52,101,175)" d="M 6161,6589 C 6161,6651 6113,6700 6051,6700 5989,6700 5940,6651 5940,6589 5940,6527 5989,6479 6051,6479 6113,6479 6161,6527 6161,6589 Z"/>
       <path fill="none" stroke="rgb(52,101,175)" d="M 6161,6479 L 6161,6479 Z"/>
       <path fill="none" stroke="rgb(52,101,175)" d="M 5939,6701 L 5939,6701 Z"/>
      </g>
     </g>
     <g class="com.sun.star.drawing.CustomShape">
      <g id="id76">
       <path fill="rgb(197,0,11)" stroke="none" d="M 6580,6589 C 6580,6651 6532,6700 6470,6700 6408,6700 6359,6651 6359,6589 6359,6527 6408,6479 6470,6479 6532,6479 6580,6527 6580,6589 Z M 6580,6479 L 6580,6479 Z M 6358,6701 L 6358,6701 Z"/>
       <path fill="none" stroke="rgb(197,0,11)" d="M 6580,6589 C 6580,6651 6532,6700 6470,6700 6408,6700 6359,6651 6359,6589 6359,6527 6408,6479 6470,6479 6532,6479 6580,6527 6580,6589 Z"/>
       <path fill="none" stroke="rgb(197,0,11)" d="M 6580,6479 L 6580,6479 Z"/>
       <path fill="none" stroke="rgb(197,0,11)" d="M 6358,6701 L 6358,6701 Z"/>
      </g>
     </g>
     <g class="com.sun.star.drawing.CustomShape">
      <g id="id77">
       <path fill="rgb(114,159,207)" stroke="none" d="M 6161,7090 C 6161,7152 6113,7201 6051,7201 5989,7201 5940,7152 5940,7090 5940,7028 5989,6980 6051,6980 6113,6980 6161,7028 6161,7090 Z M 6161,6980 L 6161,6980 Z M 5939,7202 L 5939,7202 Z"/>
       <path fill="none" stroke="rgb(52,101,175)" d="M 6161,7090 C 6161,7152 6113,7201 6051,7201 5989,7201 5940,7152 5940,7090 5940,7028 5989,6980 6051,6980 6113,6980 6161,7028 6161,7090 Z"/>
       <path fill="none" stroke="rgb(52,101,175)" d="M 6161,6980 L 6161,6980 Z"/>
       <path fill="none" stroke="rgb(52,101,175)" d="M 5939,7202 L 5939,7202 Z"/>
      </g>
     </g>
     <g class="com.sun.star.drawing.CustomShape">
      <g id="id78">
       <path fill="rgb(197,0,11)" stroke="none" d="M 6580,7090 C 6580,7152 6532,7201 6470,7201 6408,7201 6359,7152 6359,7090 6359,7028 6408,6980 6470,6980 6532,6980 6580,7028 6580,7090 Z M 6580,6980 L 6580,6980 Z M 6358,7202 L 6358,7202 Z"/>
       <path fill="none" stroke="rgb(197,0,11)" d="M 6580,7090 C 6580,7152 6532,7201 6470,7201 6408,7201 6359,7152 6359,7090 6359,7028 6408,6980 6470,6980 6532,6980 6580,7028 6580,7090 Z"/>
       <path fill="none" stroke="rgb(197,0,11)" d="M 6580,6980 L 6580,6980 Z"/>
       <path fill="none" stroke="rgb(197,0,11)" d="M 6358,7202 L 6358,7202 Z"/>
      </g>
     </g>
     <g class="com.sun.star.drawing.CustomShape">
      <g id="id79">
       <path fill="rgb(114,159,207)" stroke="none" d="M 6161,7590 C 6161,7652 6113,7701 6051,7701 5989,7701 5940,7652 5940,7590 5940,7528 5989,7480 6051,7480 6113,7480 6161,7528 6161,7590 Z M 6161,7480 L 6161,7480 Z M 5939,7702 L 5939,7702 Z"/>
       <path fill="none" stroke="rgb(52,101,175)" d="M 6161,7590 C 6161,7652 6113,7701 6051,7701 5989,7701 5940,7652 5940,7590 5940,7528 5989,7480 6051,7480 6113,7480 6161,7528 6161,7590 Z"/>
       <path fill="none" stroke="rgb(52,101,175)" d="M 6161,7480 L 6161,7480 Z"/>
       <path fill="none" stroke="rgb(52,101,175)" d="M 5939,7702 L 5939,7702 Z"/>
      </g>
     </g>
     <g class="com.sun.star.drawing.CustomShape">
      <g id="id80">
       <path fill="rgb(197,0,11)" stroke="none" d="M 6580,7590 C 6580,7652 6532,7701 6470,7701 6408,7701 6359,7652 6359,7590 6359,7528 6408,7480 6470,7480 6532,7480 6580,7528 6580,7590 Z M 6580,7480 L 6580,7480 Z M 6358,7702 L 6358,7702 Z"/>
       <path fill="none" stroke="rgb(197,0,11)" d="M 6580,7590 C 6580,7652 6532,7701 6470,7701 6408,7701 6359,7652 6359,7590 6359,7528 6408,7480 6470,7480 6532,7480 6580,7528 6580,7590 Z"/>
       <path fill="none" stroke="rgb(197,0,11)" d="M 6580,7480 L 6580,7480 Z"/>
       <path fill="none" stroke="rgb(197,0,11)" d="M 6358,7702 L 6358,7702 Z"/>
      </g>
     </g>
     <g class="com.sun.star.drawing.CustomShape">
      <g id="id81">
       <path fill="rgb(114,159,207)" stroke="none" d="M 6161,8590 C 6161,8652 6113,8701 6051,8701 5989,8701 5940,8652 5940,8590 5940,8528 5989,8480 6051,8480 6113,8480 6161,8528 6161,8590 Z M 6161,8480 L 6161,8480 Z M 5939,8702 L 5939,8702 Z"/>
       <path fill="none" stroke="rgb(52,101,175)" d="M 6161,8590 C 6161,8652 6113,8701 6051,8701 5989,8701 5940,8652 5940,8590 5940,8528 5989,8480 6051,8480 6113,8480 6161,8528 6161,8590 Z"/>
       <path fill="none" stroke="rgb(52,101,175)" d="M 6161,8480 L 6161,8480 Z"/>
       <path fill="none" stroke="rgb(52,101,175)" d="M 5939,8702 L 5939,8702 Z"/>
      </g>
     </g>
     <g class="com.sun.star.drawing.CustomShape">
      <g id="id82">
       <path fill="rgb(197,0,11)" stroke="none" d="M 6580,8590 C 6580,8652 6532,8701 6470,8701 6408,8701 6359,8652 6359,8590 6359,8528 6408,8480 6470,8480 6532,8480 6580,8528 6580,8590 Z M 6580,8480 L 6580,8480 Z M 6358,8702 L 6358,8702 Z"/>
       <path fill="none" stroke="rgb(197,0,11)" d="M 6580,8590 C 6580,8652 6532,8701 6470,8701 6408,8701 6359,8652 6359,8590 6359,8528 6408,8480 6470,8480 6532,8480 6580,8528 6580,8590 Z"/>
       <path fill="none" stroke="rgb(197,0,11)" d="M 6580,8480 L 6580,8480 Z"/>
       <path fill="none" stroke="rgb(197,0,11)" d="M 6358,8702 L 6358,8702 Z"/>
      </g>
     </g>
     <g class="com.sun.star.drawing.CustomShape">
      <g id="id83">
       <path fill="rgb(114,159,207)" stroke="none" d="M 6161,8091 C 6161,8153 6113,8202 6051,8202 5989,8202 5940,8153 5940,8091 5940,8029 5989,7981 6051,7981 6113,7981 6161,8029 6161,8091 Z M 6161,7981 L 6161,7981 Z M 5939,8203 L 5939,8203 Z"/>
       <path fill="none" stroke="rgb(52,101,175)" d="M 6161,8091 C 6161,8153 6113,8202 6051,8202 5989,8202 5940,8153 5940,8091 5940,8029 5989,7981 6051,7981 6113,7981 6161,8029 6161,8091 Z"/>
       <path fill="none" stroke="rgb(52,101,175)" d="M 6161,7981 L 6161,7981 Z"/>
       <path fill="none" stroke="rgb(52,101,175)" d="M 5939,8203 L 5939,8203 Z"/>
      </g>
     </g>
     <g class="com.sun.star.drawing.CustomShape">
      <g id="id84">
       <path fill="rgb(197,0,11)" stroke="none" d="M 6580,8091 C 6580,8153 6532,8202 6470,8202 6408,8202 6359,8153 6359,8091 6359,8029 6408,7981 6470,7981 6532,7981 6580,8029 6580,8091 Z M 6580,7981 L 6580,7981 Z M 6358,8203 L 6358,8203 Z"/>
       <path fill="none" stroke="rgb(197,0,11)" d="M 6580,8091 C 6580,8153 6532,8202 6470,8202 6408,8202 6359,8153 6359,8091 6359,8029 6408,7981 6470,7981 6532,7981 6580,8029 6580,8091 Z"/>
       <path fill="none" stroke="rgb(197,0,11)" d="M 6580,7981 L 6580,7981 Z"/>
       <path fill="none" stroke="rgb(197,0,11)" d="M 6358,8203 L 6358,8203 Z"/>
      </g>
     </g>
     <g class="com.sun.star.drawing.TextShape">
      <g id="id85">
       <text class="TextShape"><tspan class="TextParagraph" font-family="Arial, sans-serif" font-size="635px" font-weight="400"><tspan class="TextPosition" x="16617" y="11349"><tspan fill="rgb(0,0,0)" stroke="none">x</tspan></tspan></tspan></text>
      </g>
     </g>
     <g class="com.sun.star.drawing.TextShape">
      <g id="id86">
       <text class="TextShape"><tspan class="TextParagraph" font-family="Arial, sans-serif" font-size="635px" font-weight="400"><tspan class="TextPosition" x="3218" y="1750"><tspan fill="rgb(0,0,0)" stroke="none">y</tspan></tspan></tspan></text>
      </g>
     </g>
    </g>
   </g>
  </g>
 </g>
</svg>