<?xml version="1.0" encoding="UTF-8"?>
<!DOCTYPE svg PUBLIC "-//W3C//DTD SVG 1.1//EN" "http://www.w3.org/Graphics/SVG/1.1/DTD/svg11.dtd">
<svg version="1.2" width="215.9mm" height="203.2mm" viewBox="0 0 21590 20320" preserveAspectRatio="xMidYMid" fill-rule="evenodd" clip-path="url(#presentation_clip_path)" stroke-width="28.222" stroke-linejoin="round" xmlns="http://www.w3.org/2000/svg" xmlns:ooo="http://xml.openoffice.org/svg/export" xmlns:xlink="http://www.w3.org/1999/xlink" xml:space="preserve">
 <defs class="ClipPathGroup">
  <clipPath id="presentation_clip_path" clipPathUnits="userSpaceOnUse">
   <rect x="0" y="0" width="21590" height="20320"/>
  </clipPath>
 </defs>
 <defs class="TextShapeIndex">
  <g ooo:slide="id1" ooo:id-list="id3 id4 id5 id6 id7 id8 id9 id10 id11 id12 id13 id14 id15 id16 id17 id18 id19 id20 id21 id22 id23 id24 id25 id26 id27 id28 id29 id30 id31 id32 id33 id34 id35 id36 id37 id38 id39 id40 id41 id42 id43"/>
 </defs>
 <defs class="EmbeddedBulletChars">
  <g id="bullet-char-template(57356)" transform="scale(0.00048828125,-0.00048828125)">
   <path d="M 580,1141 L 1163,571 580,0 -4,571 580,1141 Z"/>
  </g>
  <g id="bullet-char-template(57354)" transform="scale(0.00048828125,-0.00048828125)">
   <path d="M 8,1128 L 1137,1128 1137,0 8,0 8,1128 Z"/>
  </g>
  <g id="bullet-char-template(10146)" transform="scale(0.00048828125,-0.00048828125)">
   <path d="M 174,0 L 602,739 174,1481 1456,739 174,0 Z M 1358,739 L 309,1346 659,739 1358,739 Z"/>
  </g>
  <g id="bullet-char-template(10132)" transform="scale(0.00048828125,-0.00048828125)">
   <path d="M 2015,739 L 1276,0 717,0 1260,543 174,543 174,936 1260,936 717,1481 1274,1481 2015,739 Z"/>
  </g>
  <g id="bullet-char-template(10007)" transform="scale(0.00048828125,-0.00048828125)">
   <path d="M 0,-2 C -7,14 -16,27 -25,37 L 356,567 C 262,823 215,952 215,954 215,979 228,992 255,992 264,992 276,990 289,987 310,991 331,999 354,1012 L 381,999 492,748 772,1049 836,1024 860,1049 C 881,1039 901,1025 922,1006 886,937 835,863 770,784 769,783 710,716 594,584 L 774,223 C 774,196 753,168 711,139 L 727,119 C 717,90 699,76 672,76 641,76 570,178 457,381 L 164,-76 C 142,-110 111,-127 72,-127 30,-127 9,-110 8,-76 1,-67 -2,-52 -2,-32 -2,-23 -1,-13 0,-2 Z"/>
  </g>
  <g id="bullet-char-template(10004)" transform="scale(0.00048828125,-0.00048828125)">
   <path d="M 285,-33 C 182,-33 111,30 74,156 52,228 41,333 41,471 41,549 55,616 82,672 116,743 169,778 240,778 293,778 328,747 346,684 L 369,508 C 377,444 397,411 428,410 L 1163,1116 C 1174,1127 1196,1133 1229,1133 1271,1133 1292,1118 1292,1087 L 1292,965 C 1292,929 1282,901 1262,881 L 442,47 C 390,-6 338,-33 285,-33 Z"/>
  </g>
  <g id="bullet-char-template(9679)" transform="scale(0.00048828125,-0.00048828125)">
   <path d="M 813,0 C 632,0 489,54 383,161 276,268 223,411 223,592 223,773 276,916 383,1023 489,1130 632,1184 813,1184 992,1184 1136,1130 1245,1023 1353,916 1407,772 1407,592 1407,412 1353,268 1245,161 1136,54 992,0 813,0 Z"/>
  </g>
  <g id="bullet-char-template(8226)" transform="scale(0.00048828125,-0.00048828125)">
   <path d="M 346,457 C 273,457 209,483 155,535 101,586 74,649 74,723 74,796 101,859 155,911 209,963 273,989 346,989 419,989 480,963 531,910 582,859 608,796 608,723 608,648 583,586 532,535 482,483 420,457 346,457 Z"/>
  </g>
  <g id="bullet-char-template(8211)" transform="scale(0.00048828125,-0.00048828125)">
   <path d="M -4,459 L 1135,459 1135,606 -4,606 -4,459 Z"/>
  </g>
 </defs>
 <defs class="TextEmbeddedBitmaps"/>
 <g>
  <g id="id2" class="Master_Slide">
   <g id="bg-id2" class="Background"/>
   <g id="bo-id2" class="BackgroundObjects"/>
  </g>
 </g>
 <g class="SlideGroup">
  <g>
   <g id="id1" class="Slide" clip-path="url(#presentation_clip_path)">
    <g class="Page">
     <g class="com.sun.star.drawing.CustomShape">
      <g id="id3">
       <path fill="rgb(114,159,207)" stroke="none" d="M 10982,6628 L 3616,6628 3616,4977 18348,4977 18348,6628 10982,6628 Z"/>
       <path fill="none" stroke="rgb(52,101,175)" d="M 10982,6628 L 3616,6628 3616,4977 18348,4977 18348,6628 10982,6628 Z"/>
      </g>
     </g>
     <g class="com.sun.star.drawing.CustomShape">
      <g id="id4">
       <path fill="rgb(114,159,207)" stroke="none" d="M 6156,6374 L 3870,6374 3870,5231 8442,5231 8442,6374 6156,6374 Z"/>
       <path fill="none" stroke="rgb(52,101,175)" d="M 6156,6374 L 3870,6374 3870,5231 8442,5231 8442,6374 6156,6374 Z"/>
       <text class="TextShape"><tspan class="TextParagraph" font-family="Arial, sans-serif" font-size="635px" font-weight="400"><tspan class="TextPosition" x="5470" y="6019"><tspan fill="rgb(0,0,0)" stroke="none">input</tspan></tspan></tspan></text>
      </g>
     </g>
     <g class="com.sun.star.drawing.CustomShape">
      <g id="id5">
       <path fill="rgb(114,159,207)" stroke="none" d="M 10982,6374 L 8696,6374 8696,5231 13268,5231 13268,6374 10982,6374 Z"/>
       <path fill="none" stroke="rgb(52,101,175)" d="M 10982,6374 L 8696,6374 8696,5231 13268,5231 13268,6374 10982,6374 Z"/>
       <text class="TextShape"><tspan class="TextParagraph" font-family="Arial, sans-serif" font-size="635px" font-weight="400"><tspan class="TextPosition" x="9452" y="6019"><tspan fill="rgb(0,0,0)" stroke="none">processing</tspan></tspan></tspan></text>
      </g>
     </g>
     <g class="com.sun.star.drawing.CustomShape">
      <g id="id6">
       <path fill="rgb(114,159,207)" stroke="none" d="M 15808,6374 L 13522,6374 13522,5231 18094,5231 18094,6374 15808,6374 Z"/>
       <path fill="none" stroke="rgb(52,101,175)" d="M 15808,6374 L 13522,6374 13522,5231 18094,5231 18094,6374 15808,6374 Z"/>
       <text class="TextShape"><tspan class="TextParagraph" font-family="Arial, sans-serif" font-size="635px" font-weight="400"><tspan class="TextPosition" x="14928" y="6019"><tspan fill="rgb(0,0,0)" stroke="none">output</tspan></tspan></tspan></text>
      </g>
     </g>
     <g class="com.sun.star.drawing.CustomShape">
      <g id="id7">
       <path fill="rgb(114,159,207)" stroke="none" d="M 10982,9729 L 3616,9729 3616,8078 18348,8078 18348,9729 10982,9729 Z"/>
       <path fill="none" stroke="rgb(52,101,175)" d="M 10982,9729 L 3616,9729 3616,8078 18348,8078 18348,9729 10982,9729 Z"/>
      </g>
     </g>
     <g class="com.sun.star.drawing.CustomShape">
      <g id="id8">
       <path fill="rgb(114,159,207)" stroke="none" d="M 6156,9475 L 3870,9475 3870,8332 8442,8332 8442,9475 6156,9475 Z"/>
       <path fill="none" stroke="rgb(52,101,175)" d="M 6156,9475 L 3870,9475 3870,8332 8442,8332 8442,9475 6156,9475 Z"/>
       <text class="TextShape"><tspan class="TextParagraph" font-family="Arial, sans-serif" font-size="635px" font-weight="400"><tspan class="TextPosition" x="5470" y="9120"><tspan fill="rgb(0,0,0)" stroke="none">input</tspan></tspan></tspan></text>
      </g>
     </g>
     <g class="com.sun.star.drawing.CustomShape">
      <g id="id9">
       <path fill="rgb(114,159,207)" stroke="none" d="M 10982,9475 L 8696,9475 8696,8332 13268,8332 13268,9475 10982,9475 Z"/>
       <path fill="none" stroke="rgb(52,101,175)" d="M 10982,9475 L 8696,9475 8696,8332 13268,8332 13268,9475 10982,9475 Z"/>
       <text class="TextShape"><tspan class="TextParagraph" font-family="Arial, sans-serif" font-size="635px" font-weight="400"><tspan class="TextPosition" x="9452" y="9120"><tspan fill="rgb(0,0,0)" stroke="none">processing</tspan></tspan></tspan></text>
      </g>
     </g>
     <g class="com.sun.star.drawing.CustomShape">
      <g id="id10">
       <path fill="rgb(114,159,207)" stroke="none" d="M 15808,9475 L 13522,9475 13522,8332 18094,8332 18094,9475 15808,9475 Z"/>
       <path fill="none" stroke="rgb(52,101,175)" d="M 15808,9475 L 13522,9475 13522,8332 18094,8332 18094,9475 15808,9475 Z"/>
       <text class="TextShape"><tspan class="TextParagraph" font-family="Arial, sans-serif" font-size="635px" font-weight="400"><tspan class="TextPosition" x="14928" y="9120"><tspan fill="rgb(0,0,0)" stroke="none">output</tspan></tspan></tspan></text>
      </g>
     </g>
     <g class="com.sun.star.drawing.ConnectorShape">
      <g id="id11">
       <path fill="none" stroke="rgb(0,0,0)" d="M 6156,6375 L 10584,8171"/>
       <path fill="rgb(0,0,0)" stroke="none" d="M 10982,8333 L 10621,8025 10509,8303 10982,8333 Z"/>
      </g>
     </g>
     <g class="com.sun.star.drawing.ConnectorShape">
      <g id="id12">
       <path fill="none" stroke="rgb(0,0,0)" d="M 6156,6375 L 6156,8333"/>
      </g>
     </g>
     <g class="com.sun.star.drawing.ConnectorShape">
      <g id="id13">
       <path fill="none" stroke="rgb(0,0,0)" d="M 15808,6375 L 15808,8333"/>
      </g>
     </g>
     <g class="com.sun.star.drawing.ConnectorShape">
      <g id="id14">
       <path fill="none" stroke="rgb(0,0,0)" d="M 10982,6375 L 15403,8171"/>
       <path fill="rgb(0,0,0)" stroke="none" d="M 15801,8333 L 15441,8025 15328,8303 15801,8333 Z"/>
      </g>
     </g>
     <g class="com.sun.star.drawing.TextShape">
      <g id="id15">
       <text class="TextShape"><tspan class="TextParagraph" font-family="Arial, sans-serif" font-size="1129px" font-weight="400"><tspan class="TextPosition" x="10267" y="13377"><tspan fill="rgb(0,0,0)" stroke="none">...</tspan></tspan></tspan></text>
      </g>
     </g>
     <g class="com.sun.star.drawing.CustomShape">
      <g id="id16">
       <path fill="rgb(114,159,207)" stroke="none" d="M 15808,16976 L 13522,16976 13522,15833 18094,15833 18094,16976 15808,16976 Z"/>
       <path fill="none" stroke="rgb(52,101,175)" d="M 15808,16976 L 13522,16976 13522,15833 18094,15833 18094,16976 15808,16976 Z"/>
       <text class="TextShape"><tspan class="TextParagraph" font-family="Arial, sans-serif" font-size="635px" font-weight="400"><tspan class="TextPosition" x="14856" y="16621"><tspan fill="rgb(0,0,0)" stroke="none">Output</tspan></tspan></tspan></text>
      </g>
     </g>
     <g class="com.sun.star.drawing.ConnectorShape">
      <g id="id17">
       <path fill="none" stroke="rgb(0,0,0)" d="M 15808,16977 L 15812,17478"/>
       <path fill="rgb(0,0,0)" stroke="none" d="M 15816,17908 L 15962,17457 15662,17459 15816,17908 Z"/>
      </g>
     </g>
     <g class="com.sun.star.drawing.TextShape">
      <g id="id18">
       <text class="TextShape"><tspan class="TextParagraph" font-family="Arial, sans-serif" font-size="635px" font-weight="400"><tspan class="TextPosition" x="4425" y="2834"><tspan fill="rgb(0,0,0)" stroke="none">Input vector</tspan></tspan></tspan></text>
      </g>
     </g>
     <g class="com.sun.star.drawing.CustomShape">
      <g id="id19">
       <path fill="rgb(114,159,207)" stroke="none" d="M 10982,12830 L 3616,12830 3616,11179 18348,11179 18348,12830 10982,12830 Z"/>
       <path fill="none" stroke="rgb(52,101,175)" d="M 10982,12830 L 3616,12830 3616,11179 18348,11179 18348,12830 10982,12830 Z"/>
      </g>
     </g>
     <g class="com.sun.star.drawing.CustomShape">
      <g id="id20">
       <path fill="rgb(114,159,207)" stroke="none" d="M 6156,12576 L 3870,12576 3870,11433 8442,11433 8442,12576 6156,12576 Z"/>
       <path fill="none" stroke="rgb(52,101,175)" d="M 6156,12576 L 3870,12576 3870,11433 8442,11433 8442,12576 6156,12576 Z"/>
       <text class="TextShape"><tspan class="TextParagraph" font-family="Arial, sans-serif" font-size="635px" font-weight="400"><tspan class="TextPosition" x="5470" y="12221"><tspan fill="rgb(0,0,0)" stroke="none">input</tspan></tspan></tspan></text>
      </g>
     </g>
     <g class="com.sun.star.drawing.CustomShape">
      <g id="id21">
       <path fill="rgb(114,159,207)" stroke="none" d="M 10982,12576 L 8696,12576 8696,11433 13268,11433 13268,12576 10982,12576 Z"/>
       <path fill="none" stroke="rgb(52,101,175)" d="M 10982,12576 L 8696,12576 8696,11433 13268,11433 13268,12576 10982,12576 Z"/>
       <text class="TextShape"><tspan class="TextParagraph" font-family="Arial, sans-serif" font-size="635px" font-weight="400"><tspan class="TextPosition" x="9452" y="12221"><tspan fill="rgb(0,0,0)" stroke="none">processing</tspan></tspan></tspan></text>
      </g>
     </g>
     <g class="com.sun.star.drawing.CustomShape">
      <g id="id22">
       <path fill="rgb(114,159,207)" stroke="none" d="M 15808,12576 L 13522,12576 13522,11433 18094,11433 18094,12576 15808,12576 Z"/>
       <path fill="none" stroke="rgb(52,101,175)" d="M 15808,12576 L 13522,12576 13522,11433 18094,11433 18094,12576 15808,12576 Z"/>
       <text class="TextShape"><tspan class="TextParagraph" font-family="Arial, sans-serif" font-size="635px" font-weight="400"><tspan class="TextPosition" x="14928" y="12221"><tspan fill="rgb(0,0,0)" stroke="none">output</tspan></tspan></tspan></text>
      </g>
     </g>
     <g class="com.sun.star.drawing.ConnectorShape">
      <g id="id23">
       <path fill="none" stroke="rgb(0,0,0)" d="M 6156,9476 L 10584,11272"/>
       <path fill="rgb(0,0,0)" stroke="none" d="M 10982,11434 L 10621,11126 10509,11404 10982,11434 Z"/>
      </g>
     </g>
     <g class="com.sun.star.drawing.ConnectorShape">
      <g id="id24">
       <path fill="none" stroke="rgb(0,0,0)" d="M 6156,9476 L 6156,11434"/>
      </g>
     </g>
     <g class="com.sun.star.drawing.ConnectorShape">
      <g id="id25">
       <path fill="none" stroke="rgb(0,0,0)" d="M 15808,9476 L 15808,11434"/>
      </g>
     </g>
     <g class="com.sun.star.drawing.ConnectorShape">
      <g id="id26">
       <path fill="none" stroke="rgb(0,0,0)" d="M 10982,9476 L 15403,11272"/>
       <path fill="rgb(0,0,0)" stroke="none" d="M 15801,11434 L 15441,11126 15328,11404 15801,11434 Z"/>
      </g>
     </g>
     <g class="com.sun.star.drawing.ConnectorShape">
      <g id="id27">
       <path fill="none" stroke="rgb(0,0,0)" d="M 15808,13876 L 15808,15834"/>
      </g>
     </g>
     <g class="com.sun.star.drawing.ConnectorShape">
      <g id="id28">
       <path fill="none" stroke="rgb(0,0,0)" d="M 10982,13876 L 15403,15672"/>
       <path fill="rgb(0,0,0)" stroke="none" d="M 15801,15834 L 15441,15526 15328,15804 15801,15834 Z"/>
      </g>
     </g>
     <g class="com.sun.star.drawing.TextShape">
      <g id="id29">
       <text class="TextShape"><tspan class="TextParagraph" font-family="Arial, sans-serif" font-size="635px" font-weight="400"><tspan class="TextPosition" x="13926" y="18735"><tspan fill="rgb(0,0,0)" stroke="none">Output vector</tspan></tspan></tspan></text>
      </g>
     </g>
     <g class="com.sun.star.drawing.ConnectorShape">
      <g id="id30">
       <path fill="none" stroke="rgb(0,0,0)" d="M 6156,3275 L 10584,5071"/>
       <path fill="rgb(0,0,0)" stroke="none" d="M 10982,5233 L 10621,4925 10509,5203 10982,5233 Z"/>
      </g>
     </g>
     <g class="com.sun.star.drawing.ConnectorShape">
      <g id="id31">
       <path fill="none" stroke="rgb(0,0,0)" d="M 6156,3275 L 6156,5233"/>
      </g>
     </g>
     <g class="com.sun.star.drawing.TextShape">
      <g id="id32">
       <text class="TextShape"><tspan class="TextParagraph" font-family="Arial, sans-serif" font-size="368px" font-weight="400"><tspan class="TextPosition" x="9251" y="4464"><tspan font-size="635px" fill="rgb(0,0,0)" stroke="none">w</tspan></tspan><tspan class="TextPosition" x="9696" y="4674"><tspan fill="rgb(0,0,0)" stroke="none">1</tspan></tspan></tspan></text>
      </g>
     </g>
     <g class="com.sun.star.drawing.TextShape">
      <g id="id33">
       <text class="TextShape"><tspan class="TextParagraph" font-family="Arial, sans-serif" font-size="368px" font-weight="400"><tspan class="TextPosition" x="9251" y="7565"><tspan font-size="635px" fill="rgb(0,0,0)" stroke="none">w</tspan></tspan><tspan class="TextPosition" x="9696" y="7775"><tspan fill="rgb(0,0,0)" stroke="none">2</tspan></tspan></tspan></text>
      </g>
     </g>
     <g class="com.sun.star.drawing.TextShape">
      <g id="id34">
       <text class="TextShape"><tspan class="TextParagraph" font-family="Arial, sans-serif" font-size="368px" font-weight="400"><tspan class="TextPosition" x="9251" y="10665"><tspan font-size="635px" fill="rgb(0,0,0)" stroke="none">w</tspan></tspan><tspan class="TextPosition" x="9696" y="10875"><tspan fill="rgb(0,0,0)" stroke="none">3</tspan></tspan></tspan></text>
      </g>
     </g>
     <g class="com.sun.star.drawing.TextShape">
      <g id="id35">
       <text class="TextShape"><tspan class="TextParagraph" font-family="Arial, sans-serif" font-size="368px" font-weight="400"><tspan class="TextPosition" x="14251" y="7564"><tspan font-size="635px" fill="rgb(0,0,0)" stroke="none">a</tspan></tspan><tspan class="TextPosition" y="7774"><tspan fill="rgb(0,0,0)" stroke="none">1</tspan></tspan></tspan></text>
      </g>
     </g>
     <g class="com.sun.star.drawing.TextShape">
      <g id="id36">
       <text class="TextShape"><tspan class="TextParagraph" font-family="Arial, sans-serif" font-size="368px" font-weight="400"><tspan class="TextPosition" x="14251" y="10665"><tspan font-size="635px" fill="rgb(0,0,0)" stroke="none">a</tspan></tspan><tspan class="TextPosition" y="10875"><tspan fill="rgb(0,0,0)" stroke="none">2</tspan></tspan></tspan></text>
      </g>
     </g>
     <g class="com.sun.star.drawing.TextShape">
      <g id="id37">
       <text class="TextShape"><tspan class="TextParagraph" font-family="Arial, sans-serif" font-size="368px" font-weight="400"><tspan class="TextPosition" x="14251" y="15065"><tspan font-size="635px" fill="rgb(0,0,0)" stroke="none">a</tspan></tspan><tspan class="TextPosition" y="15275"><tspan fill="rgb(0,0,0)" stroke="none">n</tspan></tspan></tspan></text>
      </g>
     </g>
     <g class="com.sun.star.drawing.TextShape">
      <g id="id38">
       <text class="TextShape"><tspan class="TextParagraph" font-family="Arial, sans-serif" font-size="635px" font-weight="400"><tspan class="TextPosition" x="16151" y="7565"><tspan fill="rgb(0,0,0)" stroke="none">1</tspan></tspan></tspan></text>
      </g>
     </g>
     <g class="com.sun.star.drawing.TextShape">
      <g id="id39">
       <text class="TextShape"><tspan class="TextParagraph" font-family="Arial, sans-serif" font-size="635px" font-weight="400"><tspan class="TextPosition" x="16152" y="10666"><tspan fill="rgb(0,0,0)" stroke="none">1</tspan></tspan></tspan></text>
      </g>
     </g>
     <g class="com.sun.star.drawing.TextShape">
      <g id="id40">
       <text class="TextShape"><tspan class="TextParagraph" font-family="Arial, sans-serif" font-size="635px" font-weight="400"><tspan class="TextPosition" x="16152" y="15166"><tspan fill="rgb(0,0,0)" stroke="none">1</tspan></tspan></tspan></text>
      </g>
     </g>
     <g class="com.sun.star.drawing.TextShape">
      <g id="id41">
       <text class="TextShape"><tspan class="TextParagraph" font-family="Arial, sans-serif" font-size="635px" font-weight="400"><tspan class="TextPosition" x="5551" y="7565"><tspan fill="rgb(0,0,0)" stroke="none">1</tspan></tspan></tspan></text>
      </g>
     </g>
     <g class="com.sun.star.drawing.TextShape">
      <g id="id42">
       <text class="TextShape"><tspan class="TextParagraph" font-family="Arial, sans-serif" font-size="635px" font-weight="400"><tspan class="TextPosition" x="5552" y="10666"><tspan fill="rgb(0,0,0)" stroke="none">1</tspan></tspan></tspan></text>
      </g>
     </g>
     <g class="com.sun.star.drawing.TextShape">
      <g id="id43">
       <text class="TextShape"><tspan class="TextParagraph" font-family="Arial, sans-serif" font-size="635px" font-weight="400"><tspan class="TextPosition" x="5552" y="4466"><tspan fill="rgb(0,0,0)" stroke="none">1</tspan></tspan></tspan></text>
      </g>
     </g>
    </g>
   </g>
  </g>
 </g>
</svg>