<?xml version="1.0" standalone="yes"?>

<svg version="1.1" viewBox="0.0 0.0 290.0 290.0" fill="none" stroke="none" stroke-linecap="square" stroke-miterlimit="10" xmlns="http://www.w3.org/2000/svg" xmlns:xlink="http://www.w3.org/1999/xlink"><clipPath id="p.0"><path d="m0 0l1152.0 0l0 864.0l-1152.0 0l0 -864.0z" clip-rule="nonzero"></path></clipPath><g clip-path="url(#p.0)"><path fill="#000000" fill-opacity="0.0" d="m0 0l1152.0 0l0 864.0l-1152.0 0z" fill-rule="evenodd"></path><path fill="#cc0000" d="m9.9865675 145.46434l0 0c0 -74.27957 60.21549 -134.49507 134.49506 -134.49507l0 0c35.67032 0 69.879654 14.169974 95.10239 39.392693c25.222717 25.222717 39.3927 59.43206 39.3927 95.10237l0 0c0 74.27957 -60.2155 134.49507 -134.49509 134.49507l0 0c-74.27957 0 -134.49506 -60.2155 -134.49506 -134.49507z" fill-rule="evenodd"></path><path fill="#000000" fill-opacity="0.0" d="m70.816055 145.46454l0 0c0 -40.68643 32.982864 -73.6693 73.6693 -73.6693l0 0c19.5383 0 38.276382 7.761566 52.092056 21.57724c13.815674 13.815666 21.577225 32.55374 21.577225 52.092056l0 0c0 40.686417 -32.982864 73.66928 -73.66928 73.66928l0 0c-40.68643 0 -73.6693 -32.982864 -73.6693 -73.66928z" fill-rule="evenodd"></path><path stroke="#000000" stroke-width="24.0" stroke-linejoin="round" stroke-linecap="butt" d="m70.816055 145.46454l0 0c0 -40.68643 32.982864 -73.6693 73.6693 -73.6693l0 0c19.5383 0 38.276382 7.761566 52.092056 21.57724c13.815674 13.815666 21.577225 32.55374 21.577225 52.092056l0 0c0 40.686417 -32.982864 73.66928 -73.66928 73.66928l0 0c-40.68643 0 -73.6693 -32.982864 -73.6693 -73.66928z" fill-rule="evenodd"></path><path fill="#cc0000" d="m124.422424 52.949535l40.125977 0l0 40.12598l-40.125977 0z" fill-rule="evenodd"></path><path fill="#000000" fill-opacity="0.0" d="m144.48541 52.949535l0 65.07086" fill-rule="evenodd"></path><path stroke="#000000" stroke-width="24.0" stroke-linejoin="round" stroke-linecap="butt" d="m144.48541 52.949535l0 65.07086" fill-rule="evenodd"></path></g></svg>

