<?xml version="1.0" standalone="yes"?>

<svg version="1.1" viewBox="0.0 0.0 293.0 500.0" fill="none" stroke="none" stroke-linecap="square" stroke-miterlimit="10" xmlns="http://www.w3.org/2000/svg" xmlns:xlink="http://www.w3.org/1999/xlink"><clipPath id="p.0"><path d="m0 0l1024.0 0l0 768.0l-1024.0 0l0 -768.0z" clip-rule="nonzero"></path></clipPath><g clip-path="url(#p.0)"><path fill="#000000" fill-opacity="0.0" d="m0 0l1024.0 0l0 768.0l-1024.0 0z" fill-rule="evenodd"></path><path fill="#000000" fill-opacity="0.0" d="m12.0078745 73.055115l270.04724 0l0 405.07086l-270.04724 0z" fill-rule="evenodd"></path><path stroke="#000000" stroke-width="3.0" stroke-linejoin="round" stroke-linecap="butt" d="m12.0078745 73.055115l270.04724 0l0 405.07086l-270.04724 0z" fill-rule="evenodd"></path><path fill="#e6b8af" d="m12.0078745 298.09448l45.007874 0l0 45.007874l-45.007874 0z" fill-rule="evenodd"></path><path stroke="#000000" stroke-width="3.0" stroke-linejoin="round" stroke-linecap="butt" d="m12.0078745 298.09448l45.007874 0l0 45.007874l-45.007874 0z" fill-rule="evenodd"></path><path fill="#e6b8af" d="m57.015747 298.09448l45.007874 0l0 45.007874l-45.007874 0z" fill-rule="evenodd"></path><path stroke="#000000" stroke-width="3.0" stroke-linejoin="round" stroke-linecap="butt" d="m57.015747 298.09448l45.007874 0l0 45.007874l-45.007874 0z" fill-rule="evenodd"></path><path fill="#e6b8af" d="m12.0078745 253.08661l45.007874 0l0 45.007874l-45.007874 0z" fill-rule="evenodd"></path><path stroke="#000000" stroke-width="3.0" stroke-linejoin="round" stroke-linecap="butt" d="m12.0078745 253.08661l45.007874 0l0 45.007874l-45.007874 0z" fill-rule="evenodd"></path><path fill="#e6b8af" d="m12.0078745 342.83466l45.007874 0l0 45.007874l-45.007874 0z" fill-rule="evenodd"></path><path stroke="#000000" stroke-width="3.0" stroke-linejoin="round" stroke-linecap="butt" d="m12.0078745 342.83466l45.007874 0l0 45.007874l-45.007874 0z" fill-rule="evenodd"></path><path fill="#fff2cc" d="m147.0315 139.07086l45.007874 0l0 45.007874l-45.007874 0z" fill-rule="evenodd"></path><path stroke="#000000" stroke-width="3.0" stroke-linejoin="round" stroke-linecap="butt" d="m147.0315 139.07086l45.007874 0l0 45.007874l-45.007874 0z" fill-rule="evenodd"></path><path fill="#fff2cc" d="m102.02362 184.07874l45.007874 0l0 45.007874l-45.007874 0z" fill-rule="evenodd"></path><path stroke="#000000" stroke-width="3.0" stroke-linejoin="round" stroke-linecap="butt" d="m102.02362 184.07874l45.007874 0l0 45.007874l-45.007874 0z" fill-rule="evenodd"></path><path fill="#fff2cc" d="m57.015747 139.07086l45.007874 0l0 45.007874l-45.007874 0z" fill-rule="evenodd"></path><path stroke="#000000" stroke-width="3.0" stroke-linejoin="round" stroke-linecap="butt" d="m57.015747 139.07086l45.007874 0l0 45.007874l-45.007874 0z" fill-rule="evenodd"></path><path fill="#fff2cc" d="m102.02362 139.07086l45.007874 0l0 45.007874l-45.007874 0z" fill-rule="evenodd"></path><path stroke="#000000" stroke-width="3.0" stroke-linejoin="round" stroke-linecap="butt" d="m102.02362 139.07086l45.007874 0l0 45.007874l-45.007874 0z" fill-rule="evenodd"></path><path fill="#cfe2f3" d="m57.015747 432.78348l0 -45.007874l-45.007874 0l0 45.007874z" fill-rule="evenodd"></path><path stroke="#000000" stroke-width="3.0" stroke-linejoin="round" stroke-linecap="butt" d="m57.015747 432.78348l0 -45.007874l-45.007874 0l0 45.007874z" fill-rule="evenodd"></path><path fill="#cfe2f3" d="m102.02362 478.12598l0 -45.007874l-45.007874 0l0 45.007874z" fill-rule="evenodd"></path><path stroke="#000000" stroke-width="3.0" stroke-linejoin="round" stroke-linecap="butt" d="m102.02362 478.12598l0 -45.007874l-45.007874 0l0 45.007874z" fill-rule="evenodd"></path><path fill="#cfe2f3" d="m57.015747 478.12598l0 -45.007874l-45.007874 0l0 45.007874z" fill-rule="evenodd"></path><path stroke="#000000" stroke-width="3.0" stroke-linejoin="round" stroke-linecap="butt" d="m57.015747 478.12598l0 -45.007874l-45.007874 0l0 45.007874z" fill-rule="evenodd"></path><path fill="#d9d2e9" d="m192.03937 388.11023l45.007874 0l0 45.007874l-45.007874 0z" fill-rule="evenodd"></path><path stroke="#000000" stroke-width="3.0" stroke-linejoin="round" stroke-linecap="butt" d="m192.03937 388.11023l45.007874 0l0 45.007874l-45.007874 0z" fill-rule="evenodd"></path><path fill="#d9d2e9" d="m237.04724 433.1181l45.007874 0l0 45.007874l-45.007874 0z" fill-rule="evenodd"></path><path stroke="#000000" stroke-width="3.0" stroke-linejoin="round" stroke-linecap="butt" d="m237.04724 433.1181l45.007874 0l0 45.007874l-45.007874 0z" fill-rule="evenodd"></path><path fill="#d9d2e9" d="m237.04724 388.11023l45.007874 0l0 45.007874l-45.007874 0z" fill-rule="evenodd"></path><path stroke="#000000" stroke-width="3.0" stroke-linejoin="round" stroke-linecap="butt" d="m237.04724 388.11023l45.007874 0l0 45.007874l-45.007874 0z" fill-rule="evenodd"></path><path fill="#000000" fill-opacity="0.0" d="m15.503937 -0.8346457l270.04724 0l0 67.2126l-270.04724 0z" fill-rule="evenodd"></path><path fill="#000000" d="m104.66232 33.21853q0 -7.125002 3.828125 -11.156252q3.828125 -4.03125 9.875 -4.03125q3.96875 0 7.15625 1.890625q3.1875 1.890625 4.84375 5.28125q1.671875 3.390625 1.671875 7.687502q0 4.359375 -1.765625 7.796875q-1.75 3.4375 -4.96875 5.203125q-3.21875 1.765625 -6.953125 1.765625q-4.046875 0 -7.234375 -1.953125q-3.171875 -1.953125 -4.8125 -5.328125q-1.640625 -3.375 -1.640625 -7.15625zm3.90625 0.0625q0 5.171875 2.78125 8.15625q2.78125 2.984375 6.984375 2.984375q4.28125 0 7.03125 -3.0q2.765625 -3.015625 2.765625 -8.546875q0 -3.500002 -1.1875 -6.109377q-1.171875 -2.609375 -3.453125 -4.03125q-2.265625 -1.4375 -5.09375 -1.4375q-4.03125 0 -6.9375 2.765625q-2.890625 2.75 -2.890625 9.218752zm26.597656 3.515625q0 -5.765627 3.203125 -8.531252q2.671875 -2.3125 6.53125 -2.3125q4.265625 0 6.984375 2.8125q2.71875 2.796875 2.71875 7.734377q0 4.015625 -1.203125 6.3125q-1.203125 2.28125 -3.5 3.5625q-2.296875 1.265625 -5.0 1.265625q-4.359375 0 -7.046875 -2.796875q-2.6875 -2.796875 -2.6875 -8.046875zm3.609375 0q0 3.984375 1.734375 5.96875q1.75 1.984375 4.390625 1.984375q2.609375 0 4.34375 -1.984375q1.75 -2.0 1.75 -6.078125q0 -3.859375 -1.75 -5.828127q-1.75 -1.984375 -4.34375 -1.984375q-2.640625 0 -4.390625 1.96875q-1.734375 1.9687519 -1.734375 5.953127zm19.949219 18.328125l0 -28.703127l3.203125 0l0 2.703125q1.125 -1.578125 2.546875 -2.375q1.4375 -0.796875 3.46875 -0.796875q2.65625 0 4.6875 1.375q2.03125 1.359375 3.0625 3.859375q1.03125 2.484377 1.03125 5.453127q0 3.1875 -1.140625 5.734375q-1.140625 2.546875 -3.328125 3.90625q-2.171875 1.359375 -4.5625 1.359375q-1.765625 0 -3.171875 -0.734375q-1.390625 -0.75 -2.28125 -1.890625l0 10.109375l-3.515625 0zm3.1875 -18.203125q0 4.0 1.609375 5.921875q1.625 1.90625 3.9375 1.90625q2.34375 0 4.0 -1.984375q1.671875 -1.984375 1.671875 -6.140625q0 -3.96875 -1.625 -5.937502q-1.625 -1.96875 -3.890625 -1.96875q-2.25 0 -3.984375 2.09375q-1.71875 2.093752 -1.71875 6.109377zm17.652344 4.0625l3.46875 -0.546875q0.296875 2.078125 1.625 3.203125q1.34375 1.109375 3.75 1.109375q2.421875 0 3.59375 -0.984375q1.171875 -0.984375 1.171875 -2.3125q0 -1.203125 -1.03125 -1.875q-0.71875 -0.46875 -3.59375 -1.203125q-3.875 -0.96875 -5.375 -1.671875q-1.484375 -0.71875 -2.265625 -1.984375q-0.765625 -1.265625 -0.765625 -2.781252q0 -1.390625 0.640625 -2.5625q0.640625 -1.1875 1.734375 -1.96875q0.8125 -0.609375 2.21875 -1.03125q1.421875 -0.421875 3.046875 -0.421875q2.4375 0 4.28125 0.703125q1.859375 0.703125 2.734375 1.90625q0.875 1.203125 1.203125 3.21875l-3.4375 0.4687519q-0.234375 -1.6093769 -1.359375 -2.500002q-1.109375 -0.90625 -3.171875 -0.90625q-2.421875 0 -3.453125 0.8125q-1.03125 0.796875 -1.03125 1.875q0 0.6718769 0.421875 1.2187519q0.4375 0.578125 1.359375 0.9375q0.515625 0.203125 3.09375 0.90625q3.734375 1.0 5.203125 1.640625q1.484375 0.625 2.3125 1.84375q0.84375 1.203125 0.84375 3.0q0 1.75 -1.03125 3.3125q-1.015625 1.546875 -2.953125 2.40625q-1.921875 0.84375 -4.375 0.84375q-4.03125 0 -6.15625 -1.671875q-2.125 -1.6875 -2.703125 -4.984375z" fill-rule="nonzero"></path><path fill="#b6d7a8" d="m147.0315 253.08661l45.007874 0l0 45.007874l-45.007874 0z" fill-rule="evenodd"></path><path stroke="#000000" stroke-width="3.0" stroke-linejoin="round" stroke-linecap="butt" d="m147.0315 253.08661l45.007874 0l0 45.007874l-45.007874 0z" fill-rule="evenodd"></path><path fill="#b6d7a8" d="m192.03937 298.09448l45.007874 0l0 45.007874l-45.007874 0z" fill-rule="evenodd"></path><path stroke="#000000" stroke-width="3.0" stroke-linejoin="round" stroke-linecap="butt" d="m192.03937 298.09448l45.007874 0l0 45.007874l-45.007874 0z" fill-rule="evenodd"></path><path fill="#b6d7a8" d="m192.03937 253.08661l45.007874 0l0 45.007874l-45.007874 0z" fill-rule="evenodd"></path><path stroke="#000000" stroke-width="3.0" stroke-linejoin="round" stroke-linecap="butt" d="m192.03937 253.08661l45.007874 0l0 45.007874l-45.007874 0z" fill-rule="evenodd"></path><path fill="#b6d7a8" d="m192.03937 343.10236l45.007874 0l0 45.007874l-45.007874 0z" fill-rule="evenodd"></path><path stroke="#000000" stroke-width="3.0" stroke-linejoin="round" stroke-linecap="butt" d="m192.03937 343.10236l45.007874 0l0 45.007874l-45.007874 0z" fill-rule="evenodd"></path><path fill="#000000" fill-opacity="0.0" d="m58.666668 129.7769l133.38582 0" fill-rule="evenodd"></path><path stroke="#cccccc" stroke-width="3.0" stroke-linejoin="round" stroke-linecap="butt" d="m58.666668 129.7769l133.38582 0" fill-rule="evenodd"></path><path fill="#000000" fill-opacity="0.0" d="m58.666668 121.333336l133.38582 0" fill-rule="evenodd"></path><path stroke="#cccccc" stroke-width="2.0" stroke-linejoin="round" stroke-linecap="butt" d="m58.666668 121.333336l133.38582 0" fill-rule="evenodd"></path><path fill="#000000" fill-opacity="0.0" d="m58.666668 112.88976l133.38582 0" fill-rule="evenodd"></path><path stroke="#cccccc" stroke-width="1.0" stroke-linejoin="round" stroke-linecap="butt" d="m58.666668 112.88976l133.38582 0" fill-rule="evenodd"></path><path fill="#d9d2e9" d="m12.0078745 209.35826l45.007874 0l0 45.007874l-45.007874 0z" fill-rule="evenodd"></path><path stroke="#000000" stroke-width="3.0" stroke-linejoin="round" stroke-linecap="butt" d="m12.0078745 209.35826l45.007874 0l0 45.007874l-45.007874 0z" fill-rule="evenodd"></path><path fill="#d9d2e9" d="m57.015747 209.35826l45.007874 0l0 45.007874l-45.007874 0z" fill-rule="evenodd"></path><path stroke="#000000" stroke-width="3.0" stroke-linejoin="round" stroke-linecap="butt" d="m57.015747 209.35826l45.007874 0l0 45.007874l-45.007874 0z" fill-rule="evenodd"></path></g></svg>

