<?xml version="1.0" standalone="yes"?>

<svg version="1.1" viewBox="0.0 0.0 710.0 700.0" fill="none" stroke="none" stroke-linecap="square" stroke-miterlimit="10" xmlns="http://www.w3.org/2000/svg" xmlns:xlink="http://www.w3.org/1999/xlink"><clipPath id="p.0"><path d="m0 0l1024.0 0l0 768.0l-1024.0 0l0 -768.0z" clip-rule="nonzero"></path></clipPath><g clip-path="url(#p.0)"><path fill="#000000" fill-opacity="0.0" d="m0 0l1024.0 0l0 768.0l-1024.0 0z" fill-rule="evenodd"></path><path fill="#000000" fill-opacity="0.0" d="m7.0 651.0l689.0079 0" fill-rule="evenodd"></path><path stroke="#000000" stroke-width="3.0" stroke-linejoin="round" stroke-linecap="butt" d="m7.0 651.0l689.0079 0" fill-rule="evenodd"></path><path fill="#e6b8af" d="m150.02362 381.4882l45.007874 0l0 45.007874l-45.007874 0z" fill-rule="evenodd"></path><path stroke="#000000" stroke-width="3.0" stroke-linejoin="round" stroke-linecap="butt" d="m150.02362 381.4882l45.007874 0l0 45.007874l-45.007874 0z" fill-rule="evenodd"></path><path fill="#e6b8af" d="m195.0315 381.4882l45.007874 0l0 45.007874l-45.007874 0z" fill-rule="evenodd"></path><path stroke="#000000" stroke-width="3.0" stroke-linejoin="round" stroke-linecap="butt" d="m195.0315 381.4882l45.007874 0l0 45.007874l-45.007874 0z" fill-rule="evenodd"></path><path fill="#e6b8af" d="m240.03937 381.4882l45.007874 0l0 45.007874l-45.007874 0z" fill-rule="evenodd"></path><path stroke="#000000" stroke-width="3.0" stroke-linejoin="round" stroke-linecap="butt" d="m240.03937 381.4882l45.007874 0l0 45.007874l-45.007874 0z" fill-rule="evenodd"></path><path fill="#e6b8af" d="m195.0315 426.49606l45.007874 0l0 45.007874l-45.007874 0z" fill-rule="evenodd"></path><path stroke="#000000" stroke-width="3.0" stroke-linejoin="round" stroke-linecap="butt" d="m195.0315 426.49606l45.007874 0l0 45.007874l-45.007874 0z" fill-rule="evenodd"></path><path fill="#d9ead3" d="m15.0 605.9921l45.007874 0l0 45.007874l-45.007874 0z" fill-rule="evenodd"></path><path stroke="#000000" stroke-width="3.0" stroke-linejoin="round" stroke-linecap="butt" d="m15.0 605.9921l45.007874 0l0 45.007874l-45.007874 0z" fill-rule="evenodd"></path><path fill="#d9ead3" d="m60.007874 605.9921l45.007874 0l0 45.007874l-45.007874 0z" fill-rule="evenodd"></path><path stroke="#000000" stroke-width="3.0" stroke-linejoin="round" stroke-linecap="butt" d="m60.007874 605.9921l45.007874 0l0 45.007874l-45.007874 0z" fill-rule="evenodd"></path><path fill="#d9ead3" d="m15.0 560.98425l45.007874 0l0 45.007874l-45.007874 0z" fill-rule="evenodd"></path><path stroke="#000000" stroke-width="3.0" stroke-linejoin="round" stroke-linecap="butt" d="m15.0 560.98425l45.007874 0l0 45.007874l-45.007874 0z" fill-rule="evenodd"></path><path fill="#d9ead3" d="m60.007874 560.98425l45.007874 0l0 45.007874l-45.007874 0z" fill-rule="evenodd"></path><path stroke="#000000" stroke-width="3.0" stroke-linejoin="round" stroke-linecap="butt" d="m60.007874 560.98425l45.007874 0l0 45.007874l-45.007874 0z" fill-rule="evenodd"></path><path fill="#f4cccc" d="m150.02362 651.0l0 -45.007874l-45.007874 0l0 45.007874z" fill-rule="evenodd"></path><path stroke="#000000" stroke-width="3.0" stroke-linejoin="round" stroke-linecap="butt" d="m150.02362 651.0l0 -45.007874l-45.007874 0l0 45.007874z" fill-rule="evenodd"></path><path fill="#f4cccc" d="m150.02362 605.9921l0 -45.007874l-45.007874 0l0 45.007874z" fill-rule="evenodd"></path><path stroke="#000000" stroke-width="3.0" stroke-linejoin="round" stroke-linecap="butt" d="m150.02362 605.9921l0 -45.007874l-45.007874 0l0 45.007874z" fill-rule="evenodd"></path><path fill="#f4cccc" d="m150.02362 560.98425l0 -45.007874l-45.007874 0l0 45.007874z" fill-rule="evenodd"></path><path stroke="#000000" stroke-width="3.0" stroke-linejoin="round" stroke-linecap="butt" d="m150.02362 560.98425l0 -45.007874l-45.007874 0l0 45.007874z" fill-rule="evenodd"></path><path fill="#f4cccc" d="m105.01575 560.98425l0 -45.007874l-45.007874 0l0 45.007874z" fill-rule="evenodd"></path><path stroke="#000000" stroke-width="3.0" stroke-linejoin="round" stroke-linecap="butt" d="m105.01575 560.98425l0 -45.007874l-45.007874 0l0 45.007874z" fill-rule="evenodd"></path><path fill="#fff2cc" d="m150.02362 605.9921l45.007874 0l0 45.007874l-45.007874 0z" fill-rule="evenodd"></path><path stroke="#000000" stroke-width="3.0" stroke-linejoin="round" stroke-linecap="butt" d="m150.02362 605.9921l45.007874 0l0 45.007874l-45.007874 0z" fill-rule="evenodd"></path><path fill="#d9d2e9" d="m240.03937 605.9921l45.007874 0l0 45.007874l-45.007874 0z" fill-rule="evenodd"></path><path stroke="#000000" stroke-width="3.0" stroke-linejoin="round" stroke-linecap="butt" d="m240.03937 605.9921l45.007874 0l0 45.007874l-45.007874 0z" fill-rule="evenodd"></path><path fill="#d9d2e9" d="m330.0551 560.98425l45.007874 0l0 45.007874l-45.007874 0z" fill-rule="evenodd"></path><path stroke="#000000" stroke-width="3.0" stroke-linejoin="round" stroke-linecap="butt" d="m330.0551 560.98425l45.007874 0l0 45.007874l-45.007874 0z" fill-rule="evenodd"></path><path fill="#d9d2e9" d="m285.04724 605.9921l45.007874 0l0 45.007874l-45.007874 0z" fill-rule="evenodd"></path><path stroke="#000000" stroke-width="3.0" stroke-linejoin="round" stroke-linecap="butt" d="m285.04724 605.9921l45.007874 0l0 45.007874l-45.007874 0z" fill-rule="evenodd"></path><path fill="#d9d2e9" d="m330.0551 605.9921l45.007874 0l0 45.007874l-45.007874 0z" fill-rule="evenodd"></path><path stroke="#000000" stroke-width="3.0" stroke-linejoin="round" stroke-linecap="butt" d="m330.0551 605.9921l45.007874 0l0 45.007874l-45.007874 0z" fill-rule="evenodd"></path><path fill="#cfe2f3" d="m427.0 635.0l92.0 0l0 16.0l-92.0 0z" fill-rule="evenodd"></path><path stroke="#000000" stroke-width="3.0" stroke-linejoin="round" stroke-linecap="butt" d="m427.0 635.0l92.0 0l0 16.0l-92.0 0z" fill-rule="evenodd"></path><path fill="#cfe2f3" d="m488.0551 229.92914l8.913391 0l0 405.07086l-8.913391 0z" fill-rule="evenodd"></path><path stroke="#000000" stroke-width="3.0" stroke-linejoin="round" stroke-linecap="butt" d="m488.0551 229.92914l8.913391 0l0 405.07086l-8.913391 0z" fill-rule="evenodd"></path><path fill="#000000" fill-opacity="0.0" d="m451.96063 589.9921l45.007874 0l0 45.007874l-45.007874 0z" fill-rule="evenodd"></path><path stroke="#000000" stroke-width="3.0" stroke-linejoin="round" stroke-linecap="butt" d="m451.96063 589.9921l45.007874 0l0 45.007874l-45.007874 0z" fill-rule="evenodd"></path><path fill="#000000" fill-opacity="0.0" d="m453.0 592.0l41.984253 41.984253" fill-rule="evenodd"></path><path stroke="#000000" stroke-width="3.0" stroke-linejoin="round" stroke-linecap="butt" d="m453.0 592.0l41.984253 41.984253" fill-rule="evenodd"></path><path fill="#000000" fill-opacity="0.0" d="m451.96063 544.98425l45.007874 0l0 45.007874l-45.007874 0z" fill-rule="evenodd"></path><path stroke="#000000" stroke-width="3.0" stroke-linejoin="round" stroke-linecap="butt" d="m451.96063 544.98425l45.007874 0l0 45.007874l-45.007874 0z" fill-rule="evenodd"></path><path fill="#000000" fill-opacity="0.0" d="m453.0 546.9921l41.984253 41.984253" fill-rule="evenodd"></path><path stroke="#000000" stroke-width="3.0" stroke-linejoin="round" stroke-linecap="butt" d="m453.0 546.9921l41.984253 41.984253" fill-rule="evenodd"></path><path fill="#000000" fill-opacity="0.0" d="m451.96063 499.97638l45.007874 0l0 45.007874l-45.007874 0z" fill-rule="evenodd"></path><path stroke="#000000" stroke-width="3.0" stroke-linejoin="round" stroke-linecap="butt" d="m451.96063 499.97638l45.007874 0l0 45.007874l-45.007874 0z" fill-rule="evenodd"></path><path fill="#000000" fill-opacity="0.0" d="m453.0 501.98425l41.984253 41.984253" fill-rule="evenodd"></path><path stroke="#000000" stroke-width="3.0" stroke-linejoin="round" stroke-linecap="butt" d="m453.0 501.98425l41.984253 41.984253" fill-rule="evenodd"></path><path fill="#000000" fill-opacity="0.0" d="m451.96063 454.9685l45.007874 0l0 45.007874l-45.007874 0z" fill-rule="evenodd"></path><path stroke="#000000" stroke-width="3.0" stroke-linejoin="round" stroke-linecap="butt" d="m451.96063 454.9685l45.007874 0l0 45.007874l-45.007874 0z" fill-rule="evenodd"></path><path fill="#000000" fill-opacity="0.0" d="m453.0 456.97638l41.984253 41.984253" fill-rule="evenodd"></path><path stroke="#000000" stroke-width="3.0" stroke-linejoin="round" stroke-linecap="butt" d="m453.0 456.97638l41.984253 41.984253" fill-rule="evenodd"></path><path fill="#000000" fill-opacity="0.0" d="m451.96063 409.96063l45.007874 0l0 45.007874l-45.007874 0z" fill-rule="evenodd"></path><path stroke="#000000" stroke-width="3.0" stroke-linejoin="round" stroke-linecap="butt" d="m451.96063 409.96063l45.007874 0l0 45.007874l-45.007874 0z" fill-rule="evenodd"></path><path fill="#000000" fill-opacity="0.0" d="m453.0 411.9685l41.984253 41.984253" fill-rule="evenodd"></path><path stroke="#000000" stroke-width="3.0" stroke-linejoin="round" stroke-linecap="butt" d="m453.0 411.9685l41.984253 41.984253" fill-rule="evenodd"></path><path fill="#000000" fill-opacity="0.0" d="m451.96063 364.95276l45.007874 0l0 45.007874l-45.007874 0z" fill-rule="evenodd"></path><path stroke="#000000" stroke-width="3.0" stroke-linejoin="round" stroke-linecap="butt" d="m451.96063 364.95276l45.007874 0l0 45.007874l-45.007874 0z" fill-rule="evenodd"></path><path fill="#000000" fill-opacity="0.0" d="m453.0 366.96063l41.984253 41.984253" fill-rule="evenodd"></path><path stroke="#000000" stroke-width="3.0" stroke-linejoin="round" stroke-linecap="butt" d="m453.0 366.96063l41.984253 41.984253" fill-rule="evenodd"></path><path fill="#000000" fill-opacity="0.0" d="m451.96063 319.9449l45.007874 0l0 45.007874l-45.007874 0z" fill-rule="evenodd"></path><path stroke="#000000" stroke-width="3.0" stroke-linejoin="round" stroke-linecap="butt" d="m451.96063 319.9449l45.007874 0l0 45.007874l-45.007874 0z" fill-rule="evenodd"></path><path fill="#000000" fill-opacity="0.0" d="m453.0 321.95276l41.984253 41.984253" fill-rule="evenodd"></path><path stroke="#000000" stroke-width="3.0" stroke-linejoin="round" stroke-linecap="butt" d="m453.0 321.95276l41.984253 41.984253" fill-rule="evenodd"></path><path fill="#000000" fill-opacity="0.0" d="m451.96063 274.937l45.007874 0l0 45.007874l-45.007874 0z" fill-rule="evenodd"></path><path stroke="#000000" stroke-width="3.0" stroke-linejoin="round" stroke-linecap="butt" d="m451.96063 274.937l45.007874 0l0 45.007874l-45.007874 0z" fill-rule="evenodd"></path><path fill="#000000" fill-opacity="0.0" d="m453.0 276.9449l41.984253 41.984253" fill-rule="evenodd"></path><path stroke="#000000" stroke-width="3.0" stroke-linejoin="round" stroke-linecap="butt" d="m453.0 276.9449l41.984253 41.984253" fill-rule="evenodd"></path><path fill="#000000" fill-opacity="0.0" d="m451.96063 229.92914l45.007874 0l0 45.007874l-45.007874 0z" fill-rule="evenodd"></path><path stroke="#000000" stroke-width="3.0" stroke-linejoin="round" stroke-linecap="butt" d="m451.96063 229.92914l45.007874 0l0 45.007874l-45.007874 0z" fill-rule="evenodd"></path><path fill="#000000" fill-opacity="0.0" d="m453.0 231.93701l41.984253 41.984253" fill-rule="evenodd"></path><path stroke="#000000" stroke-width="3.0" stroke-linejoin="round" stroke-linecap="butt" d="m453.0 231.93701l41.984253 41.984253" fill-rule="evenodd"></path><path fill="#cfe2f3" d="m427.0 241.92914l45.007874 0l0 45.007874l-45.007874 0z" fill-rule="evenodd"></path><path stroke="#000000" stroke-width="3.0" stroke-linejoin="round" stroke-linecap="butt" d="m427.0 241.92914l45.007874 0l0 45.007874l-45.007874 0z" fill-rule="evenodd"></path><path fill="#cfe2f3" d="m427.0 286.44095l45.007874 0l0 22.48819l-45.007874 0z" fill-rule="evenodd"></path><path stroke="#000000" stroke-width="3.0" stroke-linejoin="round" stroke-linecap="butt" d="m427.0 286.44095l45.007874 0l0 22.48819l-45.007874 0z" fill-rule="evenodd"></path><path fill="#000000" fill-opacity="0.0" d="m93.0 228.0l585.0079 0" fill-rule="evenodd"></path><path stroke="#000000" stroke-width="3.0" stroke-linejoin="round" stroke-linecap="butt" d="m93.0 228.0l585.0079 0" fill-rule="evenodd"></path><path fill="#000000" fill-opacity="0.0" d="m541.9764 182.99213l45.007874 0l0 45.007874l-45.007874 0z" fill-rule="evenodd"></path><path stroke="#000000" stroke-width="3.0" stroke-linejoin="round" stroke-linecap="butt" d="m541.9764 182.99213l45.007874 0l0 45.007874l-45.007874 0z" fill-rule="evenodd"></path><path fill="#000000" fill-opacity="0.0" d="m543.01575 185.0l41.984253 41.984253" fill-rule="evenodd"></path><path stroke="#000000" stroke-width="3.0" stroke-linejoin="round" stroke-linecap="butt" d="m543.01575 185.0l41.984253 41.984253" fill-rule="evenodd"></path><path fill="#000000" fill-opacity="0.0" d="m586.98425 182.99213l45.007874 0l0 45.007874l-45.007874 0z" fill-rule="evenodd"></path><path stroke="#000000" stroke-width="3.0" stroke-linejoin="round" stroke-linecap="butt" d="m586.98425 182.99213l45.007874 0l0 45.007874l-45.007874 0z" fill-rule="evenodd"></path><path fill="#000000" fill-opacity="0.0" d="m588.0236 185.0l41.984253 41.984253" fill-rule="evenodd"></path><path stroke="#000000" stroke-width="3.0" stroke-linejoin="round" stroke-linecap="butt" d="m588.0236 185.0l41.984253 41.984253" fill-rule="evenodd"></path><path fill="#000000" fill-opacity="0.0" d="m631.9921 182.99213l45.007874 0l0 45.007874l-45.007874 0z" fill-rule="evenodd"></path><path stroke="#000000" stroke-width="3.0" stroke-linejoin="round" stroke-linecap="butt" d="m631.9921 182.99213l45.007874 0l0 45.007874l-45.007874 0z" fill-rule="evenodd"></path><path fill="#000000" fill-opacity="0.0" d="m633.0315 185.0l41.984253 41.984253" fill-rule="evenodd"></path><path stroke="#000000" stroke-width="3.0" stroke-linejoin="round" stroke-linecap="butt" d="m633.0315 185.0l41.984253 41.984253" fill-rule="evenodd"></path><path fill="#000000" fill-opacity="0.0" d="m451.99213 228.0l22.503937 -90.01575l22.503937 90.01575z" fill-rule="evenodd"></path><path stroke="#000000" stroke-width="3.0" stroke-linejoin="round" stroke-linecap="butt" d="m451.99213 228.0l22.503937 -90.01575l22.503937 90.01575z" fill-rule="evenodd"></path><path fill="#000000" fill-opacity="0.0" d="m451.99213 228.0l89.00787 -44.0" fill-rule="evenodd"></path><path stroke="#000000" stroke-width="3.0" stroke-linejoin="round" stroke-linecap="butt" d="m451.99213 228.0l89.00787 -44.0" fill-rule="evenodd"></path><path fill="#000000" fill-opacity="0.0" d="m316.9685 182.99213l45.007874 0l0 45.007874l-45.007874 0z" fill-rule="evenodd"></path><path stroke="#000000" stroke-width="3.0" stroke-linejoin="round" stroke-linecap="butt" d="m316.9685 182.99213l45.007874 0l0 45.007874l-45.007874 0z" fill-rule="evenodd"></path><path fill="#000000" fill-opacity="0.0" d="m318.00787 185.0l41.984253 41.984253" fill-rule="evenodd"></path><path stroke="#000000" stroke-width="3.0" stroke-linejoin="round" stroke-linecap="butt" d="m318.00787 185.0l41.984253 41.984253" fill-rule="evenodd"></path><path fill="#000000" fill-opacity="0.0" d="m361.97638 182.99213l45.007874 0l0 45.007874l-45.007874 0z" fill-rule="evenodd"></path><path stroke="#000000" stroke-width="3.0" stroke-linejoin="round" stroke-linecap="butt" d="m361.97638 182.99213l45.007874 0l0 45.007874l-45.007874 0z" fill-rule="evenodd"></path><path fill="#000000" fill-opacity="0.0" d="m363.01575 185.0l41.984253 41.984253" fill-rule="evenodd"></path><path stroke="#000000" stroke-width="3.0" stroke-linejoin="round" stroke-linecap="butt" d="m363.01575 185.0l41.984253 41.984253" fill-rule="evenodd"></path><path fill="#000000" fill-opacity="0.0" d="m408.02362 185.0l41.984253 41.984253" fill-rule="evenodd"></path><path stroke="#000000" stroke-width="3.0" stroke-linejoin="round" stroke-linecap="butt" d="m408.02362 185.0l41.984253 41.984253" fill-rule="evenodd"></path><path fill="#000000" fill-opacity="0.0" d="m226.95276 182.99213l45.007874 0l0 45.007874l-45.007874 0z" fill-rule="evenodd"></path><path stroke="#000000" stroke-width="3.0" stroke-linejoin="round" stroke-linecap="butt" d="m226.95276 182.99213l45.007874 0l0 45.007874l-45.007874 0z" fill-rule="evenodd"></path><path fill="#000000" fill-opacity="0.0" d="m227.99213 185.0l41.984253 41.984253" fill-rule="evenodd"></path><path stroke="#000000" stroke-width="3.0" stroke-linejoin="round" stroke-linecap="butt" d="m227.99213 185.0l41.984253 41.984253" fill-rule="evenodd"></path><path fill="#000000" fill-opacity="0.0" d="m271.96063 182.99213l45.007874 0l0 45.007874l-45.007874 0z" fill-rule="evenodd"></path><path stroke="#000000" stroke-width="3.0" stroke-linejoin="round" stroke-linecap="butt" d="m271.96063 182.99213l45.007874 0l0 45.007874l-45.007874 0z" fill-rule="evenodd"></path><path fill="#000000" fill-opacity="0.0" d="m273.0 185.0l41.984253 41.984253" fill-rule="evenodd"></path><path stroke="#000000" stroke-width="3.0" stroke-linejoin="round" stroke-linecap="butt" d="m273.0 185.0l41.984253 41.984253" fill-rule="evenodd"></path><path fill="#000000" fill-opacity="0.0" d="m136.93701 183.00787l45.007874 0l0 45.007874l-45.007874 0z" fill-rule="evenodd"></path><path stroke="#000000" stroke-width="3.0" stroke-linejoin="round" stroke-linecap="butt" d="m136.93701 183.00787l45.007874 0l0 45.007874l-45.007874 0z" fill-rule="evenodd"></path><path fill="#000000" fill-opacity="0.0" d="m137.97638 185.01575l41.984253 41.984253" fill-rule="evenodd"></path><path stroke="#000000" stroke-width="3.0" stroke-linejoin="round" stroke-linecap="butt" d="m137.97638 185.01575l41.984253 41.984253" fill-rule="evenodd"></path><path fill="#000000" fill-opacity="0.0" d="m181.94489 183.00787l45.007874 0l0 45.007874l-45.007874 0z" fill-rule="evenodd"></path><path stroke="#000000" stroke-width="3.0" stroke-linejoin="round" stroke-linecap="butt" d="m181.94489 183.00787l45.007874 0l0 45.007874l-45.007874 0z" fill-rule="evenodd"></path><path fill="#000000" fill-opacity="0.0" d="m182.98425 185.01575l41.984253 41.984253" fill-rule="evenodd"></path><path stroke="#000000" stroke-width="3.0" stroke-linejoin="round" stroke-linecap="butt" d="m182.98425 185.01575l41.984253 41.984253" fill-rule="evenodd"></path><path fill="#000000" fill-opacity="0.0" d="m136.93701 184.01575l-41.984253 41.984253" fill-rule="evenodd"></path><path stroke="#000000" stroke-width="3.0" stroke-linejoin="round" stroke-linecap="butt" d="m136.93701 184.01575l-41.984253 41.984253" fill-rule="evenodd"></path><path fill="#000000" fill-opacity="0.0" d="m136.98425 184.0l337.5118 -46.015747" fill-rule="evenodd"></path><path stroke="#000000" stroke-width="3.0" stroke-linejoin="round" stroke-linecap="butt" d="m136.98425 184.0l337.5118 -46.015747" fill-rule="evenodd"></path><path fill="#000000" fill-opacity="0.0" d="m272.00787 182.99213l202.48819 -45.007874" fill-rule="evenodd"></path><path stroke="#000000" stroke-width="3.0" stroke-linejoin="round" stroke-linecap="butt" d="m272.00787 182.99213l202.48819 -45.007874" fill-rule="evenodd"></path><path fill="#000000" fill-opacity="0.0" d="m474.49606 137.98425l202.51968 44.031494" fill-rule="evenodd"></path><path stroke="#000000" stroke-width="3.0" stroke-linejoin="round" stroke-linecap="butt" d="m474.49606 137.98425l202.51968 44.031494" fill-rule="evenodd"></path><path fill="#cfe2f3" d="m186.53543 227.0l0 0c0 -4.418274 3.581726 -8.0 8.0 -8.0l0 0c2.1217346 0 4.1565704 0.84284973 5.6568604 2.3431396c1.5002899 1.5002899 2.3431396 3.5351257 2.3431396 5.6568604l0 0c0 4.418274 -3.581726 8.0 -8.0 8.0l0 0c-4.418274 0 -8.0 -3.581726 -8.0 -8.0z" fill-rule="evenodd"></path><path stroke="#000000" stroke-width="3.0" stroke-linejoin="round" stroke-linecap="butt" d="m186.53543 227.0l0 0c0 -4.418274 3.581726 -8.0 8.0 -8.0l0 0c2.1217346 0 4.1565704 0.84284973 5.6568604 2.3431396c1.5002899 1.5002899 2.3431396 3.5351257 2.3431396 5.6568604l0 0c0 4.418274 -3.581726 8.0 -8.0 8.0l0 0c-4.418274 0 -8.0 -3.581726 -8.0 -8.0z" fill-rule="evenodd"></path><path fill="#cfe2f3" d="m232.53543 227.0l0 0c0 -4.418274 3.581726 -8.0 8.0 -8.0l0 0c2.1217346 0 4.1565704 0.84284973 5.6568604 2.3431396c1.5002899 1.5002899 2.3431396 3.5351257 2.3431396 5.6568604l0 0c0 4.418274 -3.581726 8.0 -8.0 8.0l0 0c-4.418274 0 -8.0 -3.581726 -8.0 -8.0z" fill-rule="evenodd"></path><path stroke="#000000" stroke-width="3.0" stroke-linejoin="round" stroke-linecap="butt" d="m232.53543 227.0l0 0c0 -4.418274 3.581726 -8.0 8.0 -8.0l0 0c2.1217346 0 4.1565704 0.84284973 5.6568604 2.3431396c1.5002899 1.5002899 2.3431396 3.5351257 2.3431396 5.6568604l0 0c0 4.418274 -3.581726 8.0 -8.0 8.0l0 0c-4.418274 0 -8.0 -3.581726 -8.0 -8.0z" fill-rule="evenodd"></path><path fill="#000000" fill-opacity="0.0" d="m194.53543 235.0l23.46457 83.68503" fill-rule="evenodd"></path><path stroke="#000000" stroke-width="3.0" stroke-linejoin="round" stroke-linecap="butt" d="m194.53543 235.0l23.46457 83.68503" fill-rule="evenodd"></path><path fill="#000000" fill-opacity="0.0" d="m240.53543 235.0l-22.551178 83.68503" fill-rule="evenodd"></path><path stroke="#000000" stroke-width="3.0" stroke-linejoin="round" stroke-linecap="butt" d="m240.53543 235.0l-22.551178 83.68503" fill-rule="evenodd"></path><path fill="#cfe2f3" d="m195.48032 318.68503l11.0 44.0l23.007874 0l11.0 -44.0z" fill-rule="evenodd"></path><path stroke="#000000" stroke-width="3.0" stroke-linejoin="round" stroke-linecap="butt" d="m195.48032 318.68503l11.0 44.0l23.007874 0l11.0 -44.0z" fill-rule="evenodd"></path><path fill="#cfe2f3" d="m209.53543 377.68503l0 0c0 -4.418274 3.581726 -8.0 8.0 -8.0l0 0c2.1217346 0 4.1565704 0.842865 5.6568604 2.3431702c1.5002899 1.5002747 2.3431396 3.5350952 2.3431396 5.65683l0 0c0 4.4183044 -3.581726 8.0 -8.0 8.0l0 0c-4.418274 0 -8.0 -3.5816956 -8.0 -8.0z" fill-rule="evenodd"></path><path stroke="#000000" stroke-width="3.0" stroke-linejoin="round" stroke-linecap="butt" d="m209.53543 377.68503l0 0c0 -4.418274 3.581726 -8.0 8.0 -8.0l0 0c2.1217346 0 4.1565704 0.842865 5.6568604 2.3431702c1.5002899 1.5002747 2.3431396 3.5350952 2.3431396 5.65683l0 0c0 4.4183044 -3.581726 8.0 -8.0 8.0l0 0c-4.418274 0 -8.0 -3.5816956 -8.0 -8.0z" fill-rule="evenodd"></path><path fill="#cfe2f3" d="m631.96063 227.92914l45.007874 0l0 45.007874l-45.007874 0z" fill-rule="evenodd"></path><path stroke="#000000" stroke-width="3.0" stroke-linejoin="round" stroke-linecap="butt" d="m631.96063 227.92914l45.007874 0l0 45.007874l-45.007874 0z" fill-rule="evenodd"></path><path fill="#000000" fill-opacity="0.0" d="m63.503937 31.165354l576.0 0l0 67.2126l-576.0 0z" fill-rule="evenodd"></path><path fill="#000000" d="m205.51761 50.53103l3.796875 0l0 16.546875q0 4.3125 -0.984375 6.859375q-0.96875 2.53125 -3.53125 4.125q-2.546875 1.59375 -6.6875 1.59375q-4.015625 0 -6.578125 -1.375q-2.5625 -1.390625 -3.65625 -4.015625q-1.09375 -2.640625 -1.09375 -7.1875l0 -16.546875l3.796875 0l0 16.53125q0 3.734375 0.6875 5.5q0.703125 1.765625 2.390625 2.71875q1.6875 0.953125 4.125 0.953125q4.1875 0 5.953125 -1.890625q1.78125 -1.890625 1.78125 -7.28125l0 -16.53125zm9.652344 28.640625l0 -20.75l3.15625 0l0 2.953125q2.296875 -3.421875 6.609375 -3.421875q1.875 0 3.4375 0.6875q1.578125 0.671875 2.359375 1.765625q0.78125 1.09375 1.09375 2.59375q0.203125 0.96875 0.203125 3.421875l0 12.75l-3.515625 0l0 -12.625q0 -2.140625 -0.421875 -3.203125q-0.40625 -1.0625 -1.453125 -1.703125q-1.046875 -0.640625 -2.453125 -0.640625q-2.234375 0 -3.875 1.4375q-1.625 1.421875 -1.625 5.40625l0 11.328125l-3.515625 0zm35.69922 0l0 -2.625q-1.96875 3.09375 -5.796875 3.09375q-2.484375 0 -4.5625 -1.359375q-2.078125 -1.375 -3.21875 -3.828125q-1.140625 -2.453125 -1.140625 -5.640625q0 -3.09375 1.03125 -5.625q1.03125 -2.53125 3.09375 -3.875q2.078125 -1.359375 4.640625 -1.359375q1.875 0 3.328125 0.796875q1.46875 0.796875 2.390625 2.0625l0 -10.28125l3.5 0l0 28.640625l-3.265625 0zm-11.109375 -10.359375q0 3.984375 1.671875 5.96875q1.6875 1.96875 3.96875 1.96875q2.3125 0 3.921875 -1.875q1.609375 -1.890625 1.609375 -5.765625q0 -4.25 -1.640625 -6.234375q-1.640625 -2.0 -4.046875 -2.0q-2.34375 0 -3.921875 1.921875q-1.5625 1.90625 -1.5625 6.015625zm34.10547 3.671875l3.625 0.453125q-0.859375 3.1875 -3.1875 4.953125q-2.3125 1.75 -5.9375 1.75q-4.546875 0 -7.21875 -2.796875q-2.65625 -2.8125 -2.65625 -7.875q0 -5.234375 2.6875 -8.125q2.703125 -2.890625 7.0 -2.890625q4.15625 0 6.796875 2.84375q2.640625 2.828125 2.640625 7.96875q0 0.3125 -0.03125 0.9375l-15.46875 0q0.203125 3.40625 1.9375 5.234375q1.734375 1.8125 4.34375 1.8125q1.921875 0 3.28125 -1.015625q1.375 -1.015625 2.1875 -3.25zm-11.546875 -5.671875l11.578125 0q-0.234375 -2.625 -1.328125 -3.9375q-1.671875 -2.03125 -4.359375 -2.03125q-2.421875 0 -4.078125 1.625q-1.640625 1.625 -1.8125 4.34375zm19.542969 12.359375l0 -20.75l3.171875 0l0 3.15625q1.203125 -2.21875 2.234375 -2.921875q1.03125 -0.703125 2.25 -0.703125q1.78125 0 3.625 1.140625l-1.21875 3.265625q-1.28125 -0.765625 -2.578125 -0.765625q-1.15625 0 -2.078125 0.703125q-0.90625 0.6875 -1.296875 1.90625q-0.59375 1.875 -0.59375 4.109375l0 10.859375l-3.515625 0zm38.01172 -7.59375l3.453125 0.4375q-0.5625 3.578125 -2.90625 5.609375q-2.328125 2.015625 -5.71875 2.015625q-4.265625 0 -6.859375 -2.78125q-2.578125 -2.78125 -2.578125 -7.984375q0 -3.359375 1.109375 -5.875q1.125 -2.515625 3.390625 -3.78125q2.28125 -1.265625 4.953125 -1.265625q3.375 0 5.515625 1.71875q2.15625 1.703125 2.765625 4.84375l-3.421875 0.53125q-0.484375 -2.09375 -1.734375 -3.140625q-1.234375 -1.0625 -2.984375 -1.0625q-2.65625 0 -4.328125 1.90625q-1.65625 1.90625 -1.65625 6.03125q0 4.171875 1.59375 6.078125q1.609375 1.890625 4.1875 1.890625q2.078125 0 3.453125 -1.265625q1.390625 -1.28125 1.765625 -3.90625zm5.15625 -2.78125q0 -5.765625 3.203125 -8.53125q2.671875 -2.3125 6.53125 -2.3125q4.265625 0 6.984375 2.8125q2.71875 2.796875 2.71875 7.734375q0 4.015625 -1.203125 6.3125q-1.203125 2.28125 -3.5 3.5625q-2.296875 1.265625 -5.0 1.265625q-4.359375 0 -7.046875 -2.796875q-2.6875 -2.796875 -2.6875 -8.046875zm3.609375 0q0 3.984375 1.734375 5.96875q1.75 1.984375 4.390625 1.984375q2.609375 0 4.34375 -1.984375q1.75 -2.0 1.75 -6.078125q0 -3.859375 -1.75 -5.828125q-1.75 -1.984375 -4.34375 -1.984375q-2.640625 0 -4.390625 1.96875q-1.734375 1.96875 -1.734375 5.953125zm19.949219 10.375l0 -20.75l3.15625 0l0 2.953125q2.296875 -3.421875 6.609375 -3.421875q1.875 0 3.4375 0.6875q1.578125 0.671875 2.359375 1.765625q0.78125 1.09375 1.09375 2.59375q0.203125 0.96875 0.203125 3.421875l0 12.75l-3.515625 0l0 -12.625q0 -2.140625 -0.421875 -3.203125q-0.40625 -1.0625 -1.453125 -1.703125q-1.046875 -0.640625 -2.453125 -0.640625q-2.234375 0 -3.875 1.4375q-1.625 1.421875 -1.625 5.40625l0 11.328125l-3.515625 0zm20.839844 -6.1875l3.46875 -0.546875q0.296875 2.078125 1.625 3.203125q1.34375 1.109375 3.75 1.109375q2.421875 0 3.59375 -0.984375q1.171875 -0.984375 1.171875 -2.3125q0 -1.203125 -1.03125 -1.875q-0.71875 -0.46875 -3.59375 -1.203125q-3.875 -0.96875 -5.375 -1.671875q-1.484375 -0.71875 -2.265625 -1.984375q-0.765625 -1.265625 -0.765625 -2.78125q0 -1.390625 0.640625 -2.5625q0.640625 -1.1875 1.734375 -1.96875q0.8125 -0.609375 2.21875 -1.03125q1.421875 -0.421875 3.046875 -0.421875q2.4375 0 4.28125 0.703125q1.859375 0.703125 2.734375 1.90625q0.875 1.203125 1.203125 3.21875l-3.4375 0.46875q-0.234375 -1.609375 -1.359375 -2.5q-1.109375 -0.90625 -3.171875 -0.90625q-2.421875 0 -3.453125 0.8125q-1.03125 0.796875 -1.03125 1.875q0 0.671875 0.421875 1.21875q0.4375 0.578125 1.359375 0.9375q0.515625 0.203125 3.09375 0.90625q3.734375 1.0 5.203125 1.640625q1.484375 0.625 2.3125 1.84375q0.84375 1.203125 0.84375 3.0q0 1.75 -1.03125 3.3125q-1.015625 1.546875 -2.953125 2.40625q-1.921875 0.84375 -4.375 0.84375q-4.03125 0 -6.15625 -1.671875q-2.125 -1.6875 -2.703125 -4.984375zm29.078125 3.046875l0.515625 3.09375q-1.484375 0.328125 -2.65625 0.328125q-1.921875 0 -2.984375 -0.609375q-1.046875 -0.609375 -1.484375 -1.59375q-0.421875 -0.984375 -0.421875 -4.15625l0 -11.9375l-2.578125 0l0 -2.734375l2.578125 0l0 -5.125l3.5 -2.109375l0 7.234375l3.53125 0l0 2.734375l-3.53125 0l0 12.140625q0 1.5 0.1875 1.9375q0.1875 0.421875 0.59375 0.671875q0.421875 0.25 1.203125 0.25q0.59375 0 1.546875 -0.125zm3.3945312 3.140625l0 -20.75l3.171875 0l0 3.15625q1.203125 -2.21875 2.234375 -2.921875q1.03125 -0.703125 2.25 -0.703125q1.78125 0 3.625 1.140625l-1.21875 3.265625q-1.28125 -0.765625 -2.578125 -0.765625q-1.15625 0 -2.078125 0.703125q-0.90625 0.6875 -1.296875 1.90625q-0.59375 1.875 -0.59375 4.109375l0 10.859375l-3.515625 0zm26.960938 0l0 -3.046875q-2.421875 3.515625 -6.578125 3.515625q-1.84375 0 -3.4375 -0.703125q-1.59375 -0.703125 -2.359375 -1.765625q-0.765625 -1.0625 -1.078125 -2.609375q-0.21875 -1.03125 -0.21875 -3.28125l0 -12.859375l3.515625 0l0 11.515625q0 2.75 0.21875 3.703125q0.328125 1.390625 1.390625 2.1875q1.078125 0.78125 2.671875 0.78125q1.578125 0 2.953125 -0.8125q1.390625 -0.8125 1.96875 -2.203125q0.578125 -1.390625 0.578125 -4.046875l0 -11.125l3.515625 0l0 20.75l-3.140625 0zm22.183594 -7.59375l3.453125 0.4375q-0.5625 3.578125 -2.90625 5.609375q-2.328125 2.015625 -5.71875 2.015625q-4.265625 0 -6.859375 -2.78125q-2.578125 -2.78125 -2.578125 -7.984375q0 -3.359375 1.109375 -5.875q1.125 -2.515625 3.390625 -3.78125q2.28125 -1.265625 4.953125 -1.265625q3.375 0 5.515625 1.71875q2.15625 1.703125 2.765625 4.84375l-3.421875 0.53125q-0.484375 -2.09375 -1.734375 -3.140625q-1.234375 -1.0625 -2.984375 -1.0625q-2.65625 0 -4.328125 1.90625q-1.65625 1.90625 -1.65625 6.03125q0 4.171875 1.59375 6.078125q1.609375 1.890625 4.1875 1.890625q2.078125 0 3.453125 -1.265625q1.390625 -1.28125 1.765625 -3.90625zm14.140625 4.453125l0.515625 3.09375q-1.484375 0.328125 -2.65625 0.328125q-1.921875 0 -2.984375 -0.609375q-1.046875 -0.609375 -1.484375 -1.59375q-0.421875 -0.984375 -0.421875 -4.15625l0 -11.9375l-2.578125 0l0 -2.734375l2.578125 0l0 -5.125l3.5 -2.109375l0 7.234375l3.53125 0l0 2.734375l-3.53125 0l0 12.140625q0 1.5 0.1875 1.9375q0.1875 0.421875 0.59375 0.671875q0.421875 0.25 1.203125 0.25q0.59375 0 1.546875 -0.125zm3.4570312 -21.453125l0 -4.046875l3.515625 0l0 4.046875l-3.515625 0zm0 24.59375l0 -20.75l3.515625 0l0 20.75l-3.515625 0zm7.5585938 -10.375q0 -5.765625 3.203125 -8.53125q2.671875 -2.3125 6.53125 -2.3125q4.265625 0 6.984375 2.8125q2.71875 2.796875 2.71875 7.734375q0 4.015625 -1.203125 6.3125q-1.203125 2.28125 -3.5 3.5625q-2.296875 1.265625 -5.0 1.265625q-4.359375 0 -7.046875 -2.796875q-2.6875 -2.796875 -2.6875 -8.046875zm3.609375 0q0 3.984375 1.734375 5.96875q1.75 1.984375 4.390625 1.984375q2.609375 0 4.34375 -1.984375q1.75 -2.0 1.75 -6.078125q0 -3.859375 -1.75 -5.828125q-1.75 -1.984375 -4.34375 -1.984375q-2.640625 0 -4.390625 1.96875q-1.734375 1.96875 -1.734375 5.953125zm19.949219 10.375l0 -20.75l3.15625 0l0 2.953125q2.296875 -3.421875 6.609375 -3.421875q1.875 0 3.4375305 0.6875q1.578125 0.671875 2.359375 1.765625q0.78125 1.09375 1.09375 2.59375q0.203125 0.96875 0.203125 3.421875l0 12.75l-3.515625 0l0 -12.625q0 -2.140625 -0.421875 -3.203125q-0.40625 -1.0625 -1.4531555 -1.703125q-1.046875 -0.640625 -2.453125 -0.640625q-2.234375 0 -3.875 1.4375q-1.625 1.421875 -1.625 5.40625l0 11.328125l-3.515625 0z" fill-rule="nonzero"></path></g></svg>

